<?xml version="1.0" encoding="utf-8"?>
<!-- Generator: Adobe Illustrator 21.1.0, SVG Export Plug-In . SVG Version: 6.00 Build 0)  -->
<svg version="1.1" id="Layer_1" xmlns="http://www.w3.org/2000/svg" xmlns:xlink="http://www.w3.org/1999/xlink" x="0px" y="0px"
	 viewBox="0 0 24 23" style="enable-background:new 0 0 24 23;" xml:space="preserve">
<style type="text/css">
	.st0{fill:#FFFFFF;}
</style>
<title>Create_Note_Icon</title>
<desc>Created with Sketch.</desc>
<g id="_x36_---Station-1-Notes---Note-Added-Attachment" transform="translate(-334.000000, -30.000000)">
	<g id="Create_Note_Icon" transform="translate(334.000000, 30.000000)">
		<path id="Fill-1" class="st0" d="M20.4,0c-0.2,0-0.5,0.1-0.7,0.3L7,11.3c-0.3,0.2-1.1,2.7-1.6,4.3c-0.2,0.6,0.3,1.2,1,1.1
			c1.7-0.3,4.3-0.7,4.6-1l12.7-11c0.4-0.4,0.5-1.1,0.1-1.5l-2.5-3C21,0.1,20.7,0,20.4,0 M20.4,1.8L22.2,4L10.1,14.5
			c-0.2,0.1-0.7,0.2-1.4,0.3c-0.7,0.1-1.3-0.5-1-1.2c0.2-0.6,0.4-1.1,0.5-1.4L20.4,1.8"/>
		<path id="Fill-3" class="st0" d="M19.2,23H1.8c-1,0-1.8-0.8-1.8-1.8V3.8C0,2.8,0.8,2,1.8,2h12c0.4,0,0.8,0.4,0.8,0.8
			s-0.4,0.8-0.8,0.8h-12c-0.1,0-0.2,0.1-0.2,0.2v17.4c0,0.1,0.1,0.2,0.2,0.2h17.4c0.1,0,0.2-0.1,0.2-0.2V10.8c0-0.4,0.4-0.8,0.8-0.8
			s0.8,0.4,0.8,0.8v10.4C21,22.2,20.2,23,19.2,23"/>
	</g>
</g>
</svg>
