<?xml version="1.0" encoding="UTF-8"?>
<svg width="14px" height="15px" viewBox="0 0 14 15" version="1.1" xmlns="http://www.w3.org/2000/svg" xmlns:xlink="http://www.w3.org/1999/xlink">
    <!-- Generator: Sketch 48.2 (47327) - http://www.bohemiancoding.com/sketch -->
    <title>Add_Attachment_Icon</title>
    <desc>Created with Sketch.</desc>
    <defs></defs>
    <g id="5---Station-1-Camera---Edit-Photo" stroke="none" stroke-width="1" fill="none" fill-rule="evenodd" transform="translate(-85.000000, -606.000000)">
        <g id="Buttons" transform="translate(41.000000, 594.000000)" fill="#1D87E9">
            <g id="Brush" transform="translate(0.000000, 11.000000)">
                <path d="M57.25,12.6517857 C57.25,13.3482178 57.0148833,13.9315453 56.5446429,14.4017857 C56.0744024,14.8720262 55.4910749,15.1071429 54.7946429,15.1071429 C53.9910674,15.1071429 53.2916696,14.8095268 52.6964286,14.2142857 L45.7589286,7.28571429 C45.0863062,6.60118705 44.75,5.7946475 44.75,4.86607143 C44.75,3.91963812 45.0773777,3.11607473 45.7321429,2.45535714 C46.386908,1.79463955 47.1874953,1.46428571 48.1339286,1.46428571 C49.0744095,1.46428571 49.8869013,1.80059188 50.5714286,2.47321429 L55.9732143,7.88392857 C56.0327384,7.94345268 56.0625,8.00892821 56.0625,8.08035714 C56.0625,8.17559571 55.9717271,8.31398719 55.7901786,8.49553571 C55.60863,8.67708424 55.4702386,8.76785714 55.375,8.76785714 C55.2976187,8.76785714 55.229167,8.73809554 55.1696429,8.67857143 L49.7589286,3.25892857 C49.2886881,2.80059295 48.750003,2.57142857 48.1428571,2.57142857 C47.5119016,2.57142857 46.9791688,2.79464063 46.5446429,3.24107143 C46.1101169,3.68750223 45.8928571,4.22618732 45.8928571,4.85714286 C45.8928571,5.48214598 46.1190454,6.02083107 46.5714286,6.47321429 L53.5,13.4107143 C53.8750019,13.7857162 54.3065452,13.9732143 54.7946429,13.9732143 C55.1755971,13.9732143 55.4910702,13.8482155 55.7410714,13.5982143 C55.9910727,13.348213 56.1160714,13.03274 56.1160714,12.6517857 C56.1160714,12.163688 55.9285733,11.7321447 55.5535714,11.3571429 L50.3660714,6.16964286 C50.2113088,6.026785 50.0327391,5.95535714 49.8303571,5.95535714 C49.6577372,5.95535714 49.5148815,6.0119042 49.4017857,6.125 C49.2886899,6.2380958 49.2321429,6.38095152 49.2321429,6.55357143 C49.2321429,6.74404857 49.3065469,6.91964205 49.4553571,7.08035714 L53.1160714,10.7410714 C53.1755955,10.8005955 53.2053571,10.8660711 53.2053571,10.9375 C53.2053571,11.0327386 53.1130962,11.1726181 52.9285714,11.3571429 C52.7440467,11.5416676 52.6041671,11.6339286 52.5089286,11.6339286 C52.4374996,11.6339286 52.3720241,11.604167 52.3125,11.5446429 L48.6517857,7.88392857 C48.2767838,7.52083152 48.0892857,7.07738357 48.0892857,6.55357143 C48.0892857,6.06547375 48.2589269,5.65178741 48.5982143,5.3125 C48.9375017,4.97321259 49.351188,4.80357143 49.8392857,4.80357143 C50.3630979,4.80357143 50.8065458,4.99106955 51.1696429,5.36607143 L56.3571429,10.5535714 C56.9523839,11.1369077 57.25,11.8363054 57.25,12.6517857 Z" id="Add_Attachment_Icon"></path>
            </g>
        </g>
    </g>
</svg>