<?xml version="1.0" encoding="utf-8"?>
<!-- Generator: Adobe Illustrator 21.1.0, SVG Export Plug-In . SVG Version: 6.00 Build 0)  -->
<svg version="1.1" id="Layer_1" xmlns="http://www.w3.org/2000/svg" xmlns:xlink="http://www.w3.org/1999/xlink" x="0px" y="0px"
	 viewBox="0 0 14 15" style="enable-background:new 0 0 14 15;" xml:space="preserve">
<style type="text/css">
	.st0{fill:#1D87E9;}
</style>
<title>Notes_Icon_Blue</title>
<desc>Created with Sketch.</desc>
<g id="Detail-Nav_x2F_Icons_x2F_Active_x2F_Attachments" transform="translate(-43.000000, -1.000000)">
	<g id="Icons_x2F_Active_x2F_Attachments">
		<path id="Notes_Icon_Blue" class="st0" d="M55.6,11.7h-2.2v2.2c0.2-0.1,0.3-0.1,0.4-0.2l1.7-1.7C55.5,12,55.6,11.9,55.6,11.7z
			 M53.1,10.6h2.6v-8H44.3V14h8v-2.6c0-0.2,0.1-0.4,0.2-0.6C52.7,10.7,52.9,10.6,53.1,10.6z M56.9,2.3v9.1c0,0.2-0.1,0.5-0.2,0.8
			c-0.1,0.3-0.3,0.5-0.4,0.7l-1.6,1.6c-0.2,0.2-0.4,0.3-0.7,0.4c-0.3,0.1-0.5,0.2-0.8,0.2H44c-0.2,0-0.4-0.1-0.6-0.2
			c-0.2-0.2-0.2-0.4-0.2-0.6v-12c0-0.2,0.1-0.4,0.2-0.6s0.4-0.2,0.6-0.2h12c0.2,0,0.4,0.1,0.6,0.2S56.9,2,56.9,2.3z"/>
	</g>
</g>
</svg>
