<?xml version="1.0" encoding="utf-8"?>
<!-- Generator: Adobe Illustrator 21.1.0, SVG Export Plug-In . SVG Version: 6.00 Build 0)  -->
<svg version="1.1" id="Layer_1" xmlns="http://www.w3.org/2000/svg" xmlns:xlink="http://www.w3.org/1999/xlink" x="0px" y="0px"
	 viewBox="0 0 19.2 19.2" style="enable-background:new 0 0 19.2 19.2;" xml:space="preserve">
<style type="text/css">
	.st0{fill:#FFFFFF;}
</style>
<title>No_Flash_Icon</title>
<desc>Created with Sketch.</desc>
<path class="st0" d="M9.6,0C4.3,0,0,4.3,0,9.6s4.3,9.6,9.6,9.6s9.6-4.3,9.6-9.6S14.9,0,9.6,0z M5.2,15.5l4.6-4.6l-1.5,6
	C7.1,16.7,6.1,16.2,5.2,15.5z M11,6.6L9.9,6.9l1.6-4.3c0-0.1,0-0.2,0-0.2c0,0,0,0,0,0c0.9,0.2,1.8,0.7,2.5,1.2L11,6.6z M7.6,2.4
	L5.7,10c0,0.1,0,0.2,0.1,0.3c0.1,0.1,0.2,0.1,0.3,0.1h0.1l1.2-0.3L3.6,14c-0.9-1.2-1.5-2.8-1.5-4.4C2.2,6.2,4.5,3.3,7.6,2.4z
	 M9.6,17c-0.1,0-0.3,0-0.4,0L14,6.7l1.5-1.5C16.4,6.4,17,7.9,17,9.6C17,13.7,13.7,17,9.6,17z"/>
</svg>
