<?xml version="1.0" encoding="utf-8"?>
<!-- Generator: Adobe Illustrator 21.1.0, SVG Export Plug-In . SVG Version: 6.00 Build 0)  -->
<svg version="1.1" id="Layer_1" xmlns="http://www.w3.org/2000/svg" xmlns:xlink="http://www.w3.org/1999/xlink" x="0px" y="0px"
	 viewBox="0 0 41 41" style="enable-background:new 0 0 41 41;" xml:space="preserve">
<style type="text/css">
	.st0{fill:#555555;}
	.st1{opacity:0.7;fill:#555555;enable-background:new    ;}
	.st2{opacity:0.95;fill:#555555;enable-background:new    ;}
	.st3{opacity:0.65;fill:#555555;enable-background:new    ;}
	.st4{opacity:0.9;fill:#555555;enable-background:new    ;}
	.st5{opacity:0.6;fill:#555555;enable-background:new    ;}
	.st6{opacity:0.85;fill:#555555;enable-background:new    ;}
	.st7{opacity:0.55;fill:#555555;enable-background:new    ;}
	.st8{opacity:0.8;fill:#555555;enable-background:new    ;}
	.st9{opacity:0.5;fill:#555555;enable-background:new    ;}
	.st10{opacity:0.75;fill:#555555;enable-background:new    ;}
	.st11{opacity:0.45;fill:#555555;enable-background:new    ;}
</style>
<g>
	<path class="st0" d="M28.2,20.5L28.2,20.5c0-1,0.8-1.8,1.7-1.8h9.3c1,0,1.8,0.8,1.8,1.7l0,0c0,1-0.8,1.7-1.8,1.7H30
		C29,22.2,28.2,21.5,28.2,20.5z"/>
	<path class="st1" d="M0,20.5L0,20.5c0-1,0.8-1.8,1.7-1.8H11c1,0,1.7,0.8,1.7,1.7l0,0c0,1-0.8,1.7-1.7,1.7H1.7
		C0.8,22.2,0,21.5,0,20.5z"/>
	<path class="st2" d="M27.2,16.6L27.2,16.6c-0.5-0.8-0.2-1.9,0.6-2.4l8-4.6c0.8-0.5,1.9-0.2,2.4,0.6l0,0c0.5,0.8,0.2,1.9-0.6,2.4
		l-8,4.6C28.8,17.7,27.7,17.5,27.2,16.6z"/>
	<path class="st3" d="M2.7,30.8L2.7,30.8c-0.5-0.8-0.2-1.9,0.6-2.4l8-4.6c0.8-0.5,1.9-0.2,2.4,0.6l0,0c0.5,0.8,0.2,1.9-0.6,2.4
		l-8,4.6C4.3,31.9,3.2,31.6,2.7,30.8z"/>
	<path class="st4" d="M24.4,13.8L24.4,13.8c-0.8-0.5-1.1-1.6-0.6-2.4l4.6-8c0.5-0.8,1.6-1.1,2.4-0.6l0,0c0.8,0.5,1.1,1.6,0.6,2.4
		l-4.6,8C26.3,14,25.2,14.3,24.4,13.8z"/>
	<path class="st5" d="M10.3,38.3L10.3,38.3c-0.8-0.5-1.1-1.6-0.6-2.4l4.6-8c0.5-0.8,1.6-1.1,2.4-0.6l0,0c0.8,0.5,1.1,1.6,0.6,2.4
		l-4.6,8C12.2,38.4,11.1,38.7,10.3,38.3z"/>
	<path class="st6" d="M20.5,12.8L20.5,12.8c-1,0-1.8-0.8-1.8-1.7V1.7c0-1,0.8-1.7,1.7-1.7l0,0c1,0,1.7,0.8,1.7,1.7V11
		C22.2,12,21.5,12.8,20.5,12.8z"/>
	<path class="st7" d="M20.5,41L20.5,41c-1,0-1.8-0.8-1.8-1.8V30c0-1,0.8-1.7,1.7-1.7l0,0c1,0,1.7,0.8,1.7,1.7v9.3
		C22.2,40.2,21.5,41,20.5,41z"/>
	<path class="st8" d="M16.6,13.8L16.6,13.8c-0.8,0.5-1.9,0.2-2.4-0.6l-4.6-8c-0.5-0.8-0.2-1.9,0.6-2.4l0,0c0.8-0.5,1.9-0.2,2.4,0.6
		l4.6,8C17.7,12.2,17.5,13.3,16.6,13.8z"/>
	<path class="st9" d="M30.8,38.3L30.8,38.3c-0.8,0.5-1.9,0.2-2.4-0.6l-4.6-8c-0.5-0.8-0.2-1.9,0.6-2.4l0,0c0.8-0.5,1.9-0.2,2.4,0.6
		l4.6,8C31.9,36.7,31.6,37.8,30.8,38.3z"/>
	<path class="st10" d="M13.8,16.6L13.8,16.6c-0.5,0.8-1.6,1.1-2.4,0.6l-8-4.6c-0.8-0.5-1.1-1.6-0.6-2.4l0,0c0.5-0.8,1.6-1.1,2.4-0.6
		l8,4.6C14,14.7,14.3,15.8,13.8,16.6z"/>
	<path class="st11" d="M38.3,30.7L38.3,30.7c-0.5,0.8-1.6,1.1-2.4,0.6l-8-4.6c-0.8-0.5-1.1-1.6-0.6-2.4l0,0c0.5-0.8,1.6-1.1,2.4-0.6
		l8,4.6C38.4,28.8,38.7,29.9,38.3,30.7z"/>
</g>
</svg>
