<?xml version="1.0" encoding="UTF-8"?>
<svg width="18px" height="18px" viewBox="0 0 18 18" version="1.1" xmlns="http://www.w3.org/2000/svg" xmlns:xlink="http://www.w3.org/1999/xlink">
    <!-- Generator: Sketch 48.2 (47327) - http://www.bohemiancoding.com/sketch -->
    <title>Add</title>
    <desc>Created with Sketch.</desc>
    <defs></defs>
    <g id="Navigation/Icons/Add" stroke="none" stroke-width="1" fill="none" fill-rule="evenodd" transform="translate(-2.000000, 0.000000)">
        <path d="M20,7.77272727 L20,10.2272727 C20,10.5681835 19.880683,10.8579534 19.6420455,11.0965909 C19.4034079,11.3352285 19.1136381,11.4545455 18.7727273,11.4545455 L13.4545455,11.4545455 L13.4545455,16.7727273 C13.4545455,17.1136381 13.3352285,17.4034079 13.0965909,17.6420455 C12.8579534,17.880683 12.5681835,18 12.2272727,18 L9.77272727,18 C9.43181648,18 9.14204665,17.880683 8.90340909,17.6420455 C8.66477153,17.4034079 8.54545455,17.1136381 8.54545455,16.7727273 L8.54545455,11.4545455 L3.22727273,11.4545455 C2.88636193,11.4545455 2.5965921,11.3352285 2.35795455,11.0965909 C2.11931699,10.8579534 2,10.5681835 2,10.2272727 L2,7.77272727 C2,7.43181648 2.11931699,7.14204665 2.35795455,6.90340909 C2.5965921,6.66477153 2.88636193,6.54545455 3.22727273,6.54545455 L8.54545455,6.54545455 L8.54545455,1.22727273 C8.54545455,0.886361932 8.66477153,0.596592102 8.90340909,0.357954545 C9.14204665,0.119316989 9.43181648,0 9.77272727,0 L12.2272727,0 C12.5681835,0 12.8579534,0.119316989 13.0965909,0.357954545 C13.3352285,0.596592102 13.4545455,0.886361932 13.4545455,1.22727273 L13.4545455,6.54545455 L18.7727273,6.54545455 C19.1136381,6.54545455 19.4034079,6.66477153 19.6420455,6.90340909 C19.880683,7.14204665 20,7.43181648 20,7.77272727 Z" id="Add" fill="#FFFFFF"></path>
    </g>
</svg>