<?xml version="1.0" encoding="utf-8"?>
<!-- Generator: Adobe Illustrator 21.1.0, SVG Export Plug-In . SVG Version: 6.00 Build 0)  -->
<svg version="1.1" id="Layer_1" xmlns="http://www.w3.org/2000/svg" xmlns:xlink="http://www.w3.org/1999/xlink" x="0px" y="0px"
	 viewBox="0 0 20.5 20.5" style="enable-background:new 0 0 20.5 20.5;" xml:space="preserve">
<style type="text/css">
	.st0{enable-background:new    ;}
	.st1{fill:#1D87E9;}
</style>
<title>Expand_Icon</title>
<desc>Created with Sketch.</desc>
<g id="Collapsed-Instruction" transform="translate(-352.000000, -15.000000)">
	<g class="st0">
		<path class="st1" d="M372.5,19.2v12.1c0,1.2-0.4,2.1-1.2,3c-0.8,0.8-1.8,1.2-3,1.2h-12.1c-1.2,0-2.1-0.4-3-1.2s-1.2-1.8-1.2-3
			V19.2c0-1.2,0.4-2.1,1.2-3c0.8-0.9,1.8-1.2,3-1.2h12.1c1.2,0,2.1,0.4,3,1.2C372.1,17,372.5,18,372.5,19.2z M370.7,31.2v-12
			c0-0.6-0.2-1.2-0.7-1.6c-0.5-0.5-1-0.7-1.6-0.7h-12.1c-0.6,0-1.2,0.2-1.6,0.7c-0.5,0.5-0.7,1-0.7,1.6v12.1c0,0.6,0.2,1.2,0.7,1.6
			c0.5,0.5,1,0.7,1.6,0.7h12.1c0.6,0,1.2-0.2,1.6-0.7S370.7,31.9,370.7,31.2z M368.8,24.8v0.9c0,0.1,0,0.2-0.1,0.3
			c-0.1,0.1-0.2,0.1-0.3,0.1h-5.1v5.1c0,0.1,0,0.2-0.1,0.3c-0.1,0.1-0.2,0.1-0.3,0.1H362c-0.1,0-0.2,0-0.3-0.1
			c-0.1-0.1-0.1-0.2-0.1-0.3v-5.1h-5.1c-0.1,0-0.2,0-0.3-0.1c-0.1-0.1-0.1-0.2-0.1-0.3v-0.9c0-0.1,0-0.2,0.1-0.3
			c0.1-0.1,0.2-0.1,0.3-0.1h5.1v-5.1c0-0.1,0-0.2,0.1-0.3c0.1-0.1,0.2-0.1,0.3-0.1h0.9c0.1,0,0.2,0,0.3,0.1c0.1,0.1,0.1,0.2,0.1,0.3
			v5.1h5.1c0.1,0,0.2,0,0.3,0.1C368.8,24.5,368.8,24.6,368.8,24.8z"/>
	</g>
</g>
</svg>
