<?xml version="1.0" encoding="UTF-8"?>
<svg width="16px" height="15px" viewBox="0 0 16 15" version="1.1" xmlns="http://www.w3.org/2000/svg" xmlns:xlink="http://www.w3.org/1999/xlink">
    <!-- Generator: Sketch 48.2 (47327) - http://www.bohemiancoding.com/sketch -->
    <title>Camera_Icon_Blue</title>
    <desc>Created with Sketch.</desc>
    <defs></defs>
    <g id="Detail-Nav/Icons/Active/Camera" stroke="none" stroke-width="1" fill="none" fill-rule="evenodd" transform="translate(-43.000000, -1.000000)">
        <g id="Icons/Active/Camera" fill="#1D87E9">
            <path d="M51.2053571,7.91964286 C51.2589288,7.86607116 51.2857143,7.79761946 51.2857143,7.71428571 C51.2857143,7.63095196 51.2589288,7.56250027 51.2053571,7.50892857 C51.1517854,7.45535688 51.0833338,7.42857143 51,7.42857143 C50.6071409,7.42857143 50.2708347,7.56845098 49.9910714,7.84821429 C49.7113081,8.12797759 49.5714286,8.46428375 49.5714286,8.85714286 C49.5714286,8.94047661 49.598214,9.0089283 49.6517857,9.0625 C49.7053574,9.1160717 49.7738091,9.14285714 49.8571429,9.14285714 C49.9404766,9.14285714 50.0089283,9.1160717 50.0625,9.0625 C50.1160717,9.0089283 50.1428571,8.94047661 50.1428571,8.85714286 C50.1428571,8.61904643 50.2261896,8.4166675 50.3928571,8.25 C50.5595246,8.0833325 50.7619036,8 51,8 C51.0833338,8 51.1517854,7.97321455 51.2053571,7.91964286 Z M52.6160714,7.25892857 C53.0625022,7.70535938 53.2857143,8.24404446 53.2857143,8.875 C53.2857143,9.50595554 53.0625022,10.0446406 52.6160714,10.4910714 C52.1696406,10.9375022 51.6309555,11.1607143 51,11.1607143 C50.3690445,11.1607143 49.8303594,10.9375022 49.3839286,10.4910714 C48.9374978,10.0446406 48.7142857,9.50595554 48.7142857,8.875 C48.7142857,8.24404446 48.9374978,7.70535938 49.3839286,7.25892857 C49.8303594,6.81249777 50.3690445,6.58928571 51,6.58928571 C51.6309555,6.58928571 52.1696406,6.81249777 52.6160714,7.25892857 Z M44.1428571,14 L57.8571429,14 L57.8571429,12.8571429 L44.1428571,12.8571429 L44.1428571,14 Z M53.4196429,11.3035714 C54.0922653,10.630949 54.4285714,9.8214333 54.4285714,8.875 C54.4285714,7.9285667 54.0937533,7.12053906 53.4241071,6.45089286 C52.7544609,5.78124665 51.9464333,5.44642857 51,5.44642857 C50.0535667,5.44642857 49.2455391,5.78124665 48.5758929,6.45089286 C47.9062467,7.12053906 47.5714286,7.9285667 47.5714286,8.875 C47.5714286,9.8214333 47.9062467,10.6294609 48.5758929,11.2991071 C49.2455391,11.9687533 50.0535667,12.3035714 51,12.3035714 C51.9464333,12.3035714 52.7529729,11.9702414 53.4196429,11.3035714 Z M45.2857143,3.14285714 L48.7142857,3.14285714 L48.7142857,2 L45.2857143,2 L45.2857143,3.14285714 Z M44.1428571,4.85714286 L57.8571429,4.85714286 L57.8571429,2.57142857 L50.4642857,2.57142857 L49.8928571,3.71428571 L44.1428571,3.71428571 L44.1428571,4.85714286 Z M59,2.57142857 L59,14 C59,14.3154778 58.888394,14.5848203 58.6651786,14.8080357 C58.4419632,15.0312511 58.1726206,15.1428571 57.8571429,15.1428571 L44.1428571,15.1428571 C43.8273794,15.1428571 43.5580368,15.0312511 43.3348214,14.8080357 C43.111606,14.5848203 43,14.3154778 43,14 L43,2.57142857 C43,2.2559508 43.111606,1.98660826 43.3348214,1.76339286 C43.5580368,1.54017746 43.8273794,1.42857143 44.1428571,1.42857143 L57.8571429,1.42857143 C58.1726206,1.42857143 58.4419632,1.54017746 58.6651786,1.76339286 C58.888394,1.98660826 59,2.2559508 59,2.57142857 Z" id="Camera_Icon_Blue"></path>
        </g>
    </g>
</svg>