<?xml version="1.0" encoding="UTF-8"?>
<svg width="14px" height="17px" viewBox="0 0 14 17" version="1.1" xmlns="http://www.w3.org/2000/svg" xmlns:xlink="http://www.w3.org/1999/xlink">
    <!-- Generator: Sketch 48.2 (47327) - http://www.bohemiancoding.com/sketch -->
    <title>Details_Icon_Gray</title>
    <desc>Created with Sketch.</desc>
    <defs></defs>
    <g id="Detail-Nav/Icons/Inactive/Details" stroke="none" stroke-width="1" fill="none" fill-rule="evenodd" transform="translate(-41.000000, 0.000000)">
        <g id="Icons/Inactive/Details" fill="#555555">
            <path d="M54.25,3.67857143 C54.4166675,3.84523893 54.5595232,4.07142714 54.6785714,4.35714286 C54.7976196,4.64285857 54.8571429,4.90476071 54.8571429,5.14285714 L54.8571429,15.4285714 C54.8571429,15.6666679 54.7738104,15.8690468 54.6071429,16.0357143 C54.4404754,16.2023818 54.2380964,16.2857143 54,16.2857143 L42,16.2857143 C41.7619036,16.2857143 41.5595246,16.2023818 41.3928571,16.0357143 C41.2261896,15.8690468 41.1428571,15.6666679 41.1428571,15.4285714 L41.1428571,1.14285714 C41.1428571,0.904760714 41.2261896,0.702381786 41.3928571,0.535714286 C41.5595246,0.369046786 41.7619036,0.285714286 42,0.285714286 L50,0.285714286 C50.2380964,0.285714286 50.4999986,0.3452375 50.7857143,0.464285714 C51.07143,0.583333929 51.2976182,0.726189643 51.4642857,0.892857143 L54.25,3.67857143 Z M50.2857143,1.5 L50.2857143,4.85714286 L53.6428571,4.85714286 C53.583333,4.68452295 53.5178575,4.56250036 53.4464286,4.49107143 L50.6517857,1.69642857 C50.5803568,1.62499964 50.4583342,1.55952411 50.2857143,1.5 Z M53.7142857,15.1428571 L53.7142857,6 L50,6 C49.7619036,6 49.5595246,5.9166675 49.3928571,5.75 C49.2261896,5.5833325 49.1428571,5.38095357 49.1428571,5.14285714 L49.1428571,1.42857143 L42.2857143,1.42857143 L42.2857143,15.1428571 L53.7142857,15.1428571 Z M44.5714286,7.42857143 C44.5714286,7.34523768 44.598214,7.27678598 44.6517857,7.22321429 C44.7053574,7.16964259 44.7738091,7.14285714 44.8571429,7.14285714 L51.1428571,7.14285714 C51.2261909,7.14285714 51.2946426,7.16964259 51.3482143,7.22321429 C51.401786,7.27678598 51.4285714,7.34523768 51.4285714,7.42857143 L51.4285714,8 C51.4285714,8.08333375 51.401786,8.15178545 51.3482143,8.20535714 C51.2946426,8.25892884 51.2261909,8.28571429 51.1428571,8.28571429 L44.8571429,8.28571429 C44.7738091,8.28571429 44.7053574,8.25892884 44.6517857,8.20535714 C44.598214,8.15178545 44.5714286,8.08333375 44.5714286,8 L44.5714286,7.42857143 Z M51.1428571,9.42857143 C51.2261909,9.42857143 51.2946426,9.45535687 51.3482143,9.50892857 C51.401786,9.56250027 51.4285714,9.63095196 51.4285714,9.71428571 L51.4285714,10.2857143 C51.4285714,10.369048 51.401786,10.4374997 51.3482143,10.4910714 C51.2946426,10.5446431 51.2261909,10.5714286 51.1428571,10.5714286 L44.8571429,10.5714286 C44.7738091,10.5714286 44.7053574,10.5446431 44.6517857,10.4910714 C44.598214,10.4374997 44.5714286,10.369048 44.5714286,10.2857143 L44.5714286,9.71428571 C44.5714286,9.63095196 44.598214,9.56250027 44.6517857,9.50892857 C44.7053574,9.45535687 44.7738091,9.42857143 44.8571429,9.42857143 L51.1428571,9.42857143 Z M51.1428571,11.7142857 C51.2261909,11.7142857 51.2946426,11.7410712 51.3482143,11.7946429 C51.401786,11.8482146 51.4285714,11.9166663 51.4285714,12 L51.4285714,12.5714286 C51.4285714,12.6547623 51.401786,12.723214 51.3482143,12.7767857 C51.2946426,12.8303574 51.2261909,12.8571429 51.1428571,12.8571429 L44.8571429,12.8571429 C44.7738091,12.8571429 44.7053574,12.8303574 44.6517857,12.7767857 C44.598214,12.723214 44.5714286,12.6547623 44.5714286,12.5714286 L44.5714286,12 C44.5714286,11.9166663 44.598214,11.8482146 44.6517857,11.7946429 C44.7053574,11.7410712 44.7738091,11.7142857 44.8571429,11.7142857 L51.1428571,11.7142857 Z" id="Details_Icon_Gray"></path>
        </g>
    </g>
</svg>