<?xml version="1.0" encoding="UTF-8"?>
<svg width="14px" height="15px" viewBox="0 0 14 15" version="1.1" xmlns="http://www.w3.org/2000/svg" xmlns:xlink="http://www.w3.org/1999/xlink">
    <!-- Generator: Sketch 48.2 (47327) - http://www.bohemiancoding.com/sketch -->
    <title>Notes_Icon_Gray</title>
    <desc>Created with Sketch.</desc>
    <defs></defs>
    <g id="Detail-Nav/Icons/Inactive/Attachments" stroke="none" stroke-width="1" fill="none" fill-rule="evenodd" transform="translate(-43.000000, -1.000000)">
        <g id="Icons/Inactive/Attachments" fill="#555555">
            <path d="M55.6428571,11.7142857 L53.4285714,11.7142857 L53.4285714,13.9285714 C53.6011913,13.8690473 53.7232139,13.8035718 53.7946429,13.7321429 L55.4464286,12.0803571 C55.5178575,12.0089282 55.583333,11.8869056 55.6428571,11.7142857 Z M53.1428571,10.5714286 L55.7142857,10.5714286 L55.7142857,2.57142857 L44.2857143,2.57142857 L44.2857143,14 L52.2857143,14 L52.2857143,11.4285714 C52.2857143,11.190475 52.3690468,10.9880961 52.5357143,10.8214286 C52.7023818,10.6547611 52.9047607,10.5714286 53.1428571,10.5714286 Z M56.8571429,2.28571429 L56.8571429,11.4285714 C56.8571429,11.6666679 56.7976196,11.92857 56.6785714,12.2142857 C56.5595232,12.5000014 56.4166675,12.7261896 56.25,12.8928571 L54.6071429,14.5357143 C54.4404754,14.7023818 54.2142871,14.8452375 53.9285714,14.9642857 C53.6428557,15.0833339 53.3809536,15.1428571 53.1428571,15.1428571 L44,15.1428571 C43.7619036,15.1428571 43.5595246,15.0595246 43.3928571,14.8928571 C43.2261896,14.7261896 43.1428571,14.5238107 43.1428571,14.2857143 L43.1428571,2.28571429 C43.1428571,2.04761786 43.2261896,1.84523893 43.3928571,1.67857143 C43.5595246,1.51190393 43.7619036,1.42857143 44,1.42857143 L56,1.42857143 C56.2380964,1.42857143 56.4404754,1.51190393 56.6071429,1.67857143 C56.7738104,1.84523893 56.8571429,2.04761786 56.8571429,2.28571429 Z" id="Notes_Icon_Gray"></path>
        </g>
    </g>
</svg>