<?xml version="1.0" encoding="UTF-8"?>
<svg width="16px" height="13px" viewBox="0 0 16 13" version="1.1" xmlns="http://www.w3.org/2000/svg" xmlns:xlink="http://www.w3.org/1999/xlink">
    <!-- Generator: Sketch 48.2 (47327) - http://www.bohemiancoding.com/sketch -->
    <title>Report_Icon_Blue</title>
    <desc>Created with Sketch.</desc>
    <defs></defs>
    <g id="Detail-Nav/Icons/Active/Add" stroke="none" stroke-width="1" fill="none" fill-rule="evenodd" transform="translate(-43.000000, -1.000000)">
        <g id="Icons/Active/Add" fill="#1D87E9">
            <path d="M57.2857143,12 L57.2857143,5.71428571 C57.2857143,5.47618929 57.2023818,5.27381036 57.0357143,5.10714286 C56.8690468,4.94047536 56.6666679,4.85714286 56.4285714,4.85714286 L50.1428571,4.85714286 C49.9047607,4.85714286 49.7023818,4.77381036 49.5357143,4.60714286 C49.3690468,4.44047536 49.2857143,4.23809643 49.2857143,4 L49.2857143,3.42857143 C49.2857143,3.190475 49.2023818,2.98809607 49.0357143,2.82142857 C48.8690468,2.65476107 48.6666679,2.57142857 48.4285714,2.57142857 L45.5714286,2.57142857 C45.3333321,2.57142857 45.1309532,2.65476107 44.9642857,2.82142857 C44.7976182,2.98809607 44.7142857,3.190475 44.7142857,3.42857143 L44.7142857,12 C44.7142857,12.2380964 44.7976182,12.4404754 44.9642857,12.6071429 C45.1309532,12.7738104 45.3333321,12.8571429 45.5714286,12.8571429 L56.4285714,12.8571429 C56.6666679,12.8571429 56.8690468,12.7738104 57.0357143,12.6071429 C57.2023818,12.4404754 57.2857143,12.2380964 57.2857143,12 Z M58.4285714,5.71428571 L58.4285714,12 C58.4285714,12.5476218 58.2321448,13.0178552 57.8392857,13.4107143 C57.4464266,13.8035734 56.9761932,14 56.4285714,14 L45.5714286,14 C45.0238068,14 44.5535734,13.8035734 44.1607143,13.4107143 C43.7678552,13.0178552 43.5714286,12.5476218 43.5714286,12 L43.5714286,3.42857143 C43.5714286,2.88094964 43.7678552,2.41071625 44.1607143,2.01785714 C44.5535734,1.62499804 45.0238068,1.42857143 45.5714286,1.42857143 L48.4285714,1.42857143 C48.9761932,1.42857143 49.4464266,1.62499804 49.8392857,2.01785714 C50.2321448,2.41071625 50.4285714,2.88094964 50.4285714,3.42857143 L50.4285714,3.71428571 L56.4285714,3.71428571 C56.9761932,3.71428571 57.4464266,3.91071232 57.8392857,4.30357143 C58.2321448,4.69643054 58.4285714,5.16666393 58.4285714,5.71428571 Z" id="Report_Icon_Blue"></path>
        </g>
    </g>
</svg>