<?xml version="1.0" encoding="UTF-8"?>
<svg width="15px" height="15px" viewBox="0 0 15 15" version="1.1" xmlns="http://www.w3.org/2000/svg" xmlns:xlink="http://www.w3.org/1999/xlink">
    <!-- Generator: Sketch 48.2 (47327) - http://www.bohemiancoding.com/sketch -->
    <title>Filter_Icon</title>
    <desc>Created with Sketch.</desc>
    <defs></defs>
    <g id="Pulldowns/Filter" stroke="none" stroke-width="1" fill="none" fill-rule="evenodd" transform="translate(-343.000000, -19.000000)">
        <path d="M357.092634,19.5345982 C357.206474,19.8091532 357.159599,20.0435258 356.952009,20.2377232 L352,25.1897321 L352,32.6428571 C352,32.9241085 351.869421,33.1216512 351.608259,33.2354911 C351.521205,33.2689734 351.4375,33.2857143 351.357143,33.2857143 C351.176338,33.2857143 351.02567,33.2220989 350.905134,33.0948661 L348.333705,30.5234375 C348.206473,30.3962047 348.142857,30.2455366 348.142857,30.0714286 L348.142857,25.1897321 L343.190848,20.2377232 C342.983258,20.0435258 342.936383,19.8091532 343.050223,19.5345982 C343.164063,19.2734362 343.361606,19.1428571 343.642857,19.1428571 L356.5,19.1428571 C356.781251,19.1428571 356.978794,19.2734362 357.092634,19.5345982 Z" id="Filter_Icon" fill="#8E8E93"></path>
    </g>
</svg>