<?xml version="1.0" encoding="UTF-8"?>
<svg width="14px" height="14px" viewBox="0 0 14 14" version="1.1" xmlns="http://www.w3.org/2000/svg" xmlns:xlink="http://www.w3.org/1999/xlink">
    <!-- Generator: Sketch 48.2 (47327) - http://www.bohemiancoding.com/sketch -->
    <title>Search_Icon</title>
    <desc>Created with Sketch.</desc>
    <defs></defs>
    <g id="Pulldowns/Filter" stroke="none" stroke-width="1" fill="none" fill-rule="evenodd" transform="translate(-40.000000, -19.000000)">
        <g id="Group-2" transform="translate(40.000000, 15.000000)" fill="#8E8E93">
            <path d="M13.743,16.574 L9.91,12.7395 C10.5970707,11.8024036 10.9651318,10.6694765 10.96,9.5075 C10.9468903,6.47435575 8.49362199,4.01751872 5.4605,4 C4.00898016,3.99343271 2.61512138,4.56765657 1.58943599,5.59475075 C0.563750589,6.62184492 -0.00855957881,8.01649054 -7.531753e-13,9.468 C0.0131097107,12.5014204 2.46660187,14.9584813 5.5,14.976 C6.66671019,14.9810567 7.80377649,14.6086994 8.7415,13.9145 L8.7455,13.9115 L12.575,17.743 C12.7820489,17.9602135 13.0905658,18.0481364 13.3810149,17.9727027 C13.671464,17.897269 13.8982073,17.6703316 13.9733924,17.379818 C14.0485775,17.0893045 13.9603906,16.7808629 13.743,16.574 L13.743,16.574 Z M5.496,13.878 C3.06941406,13.864041 1.10665225,11.8986027 1.096,9.472 C1.08945059,8.31094282 1.54733639,7.1954504 2.36773022,6.37383575 C3.18812405,5.5522211 4.30293437,5.09267708 5.464,5.0975 C7.89058594,5.11145899 9.85334775,7.07689729 9.864,9.5035 C9.87054941,10.6645572 9.41266361,11.7800496 8.59226978,12.6016643 C7.77187595,13.4232789 6.65706563,13.8828229 5.496,13.878 Z" id="Search_Icon"></path>
        </g>
    </g>
</svg>