<?xml version="1.0" encoding="UTF-8"?>
<svg width="10px" height="12px" viewBox="0 0 10 12" version="1.1" xmlns="http://www.w3.org/2000/svg" xmlns:xlink="http://www.w3.org/1999/xlink">
    <!-- Generator: Sketch 48.2 (47327) - http://www.bohemiancoding.com/sketch -->
    <title>Lock_Icon</title>
    <desc>Created with Sketch.</desc>
    <defs></defs>
    <g id="Connection-Bar/Connected---In-Progress" stroke="none" stroke-width="1" fill="none" fill-rule="evenodd" transform="translate(-28.000000, -24.000000)">
        <path d="M30.6785714,29.5714286 L34.9642857,29.5714286 L34.9642857,27.9642857 C34.9642857,27.3727649 34.7550244,26.8677476 34.3364955,26.4492188 C33.9179667,26.0306899 33.4129494,25.8214286 32.8214286,25.8214286 C32.2299078,25.8214286 31.7248905,26.0306899 31.3063616,26.4492188 C30.8878327,26.8677476 30.6785714,27.3727649 30.6785714,27.9642857 L30.6785714,29.5714286 Z M37.6428571,30.375 L37.6428571,35.1964286 C37.6428571,35.419644 37.5647329,35.6093742 37.4084821,35.765625 C37.2522314,35.9218758 37.0625011,36 36.8392857,36 L28.8035714,36 C28.580356,36 28.3906258,35.9218758 28.234375,35.765625 C28.0781242,35.6093742 28,35.419644 28,35.1964286 L28,30.375 C28,30.1517846 28.0781242,29.9620544 28.234375,29.8058036 C28.3906258,29.6495528 28.580356,29.5714286 28.8035714,29.5714286 L29.0714286,29.5714286 L29.0714286,27.9642857 C29.0714286,26.9374949 29.4397285,26.0558073 30.1763393,25.3191964 C30.9129501,24.5825856 31.7946377,24.2142857 32.8214286,24.2142857 C33.8482194,24.2142857 34.729907,24.5825856 35.4665179,25.3191964 C36.2031287,26.0558073 36.5714286,26.9374949 36.5714286,27.9642857 L36.5714286,29.5714286 L36.8392857,29.5714286 C37.0625011,29.5714286 37.2522314,29.6495528 37.4084821,29.8058036 C37.5647329,29.9620544 37.6428571,30.1517846 37.6428571,30.375 Z" id="Lock_Icon" fill="#FFFFFF"></path>
    </g>
</svg>