<?xml version="1.0" encoding="UTF-8"?>
<svg width="10px" height="9px" viewBox="0 0 10 9" version="1.1" xmlns="http://www.w3.org/2000/svg" xmlns:xlink="http://www.w3.org/1999/xlink">
    <!-- Generator: Sketch 48.2 (47327) - http://www.bohemiancoding.com/sketch -->
    <title>X</title>
    <desc>Created with Sketch.</desc>
    <defs></defs>
    <g id="Connection-Bar/Disconnected" stroke="none" stroke-width="1" fill="none" fill-rule="evenodd" transform="translate(-29.000000, -28.000000)">
        <g id="No_Connection_Icon" transform="translate(9.000000, 26.000000)" fill="#FFFFFF">
            <path d="M27.0145089,7.48549107 L26.1997768,8.30022321 C26.1625742,8.33742578 26.1197919,8.35602679 26.0714286,8.35602679 C26.0230652,8.35602679 25.9802829,8.33742578 25.9430804,8.30022321 L25,7.35714286 L24.0569196,8.30022321 C24.0197171,8.33742578 23.9769348,8.35602679 23.9285714,8.35602679 C23.8802081,8.35602679 23.8374258,8.33742578 23.8002232,8.30022321 L22.9854911,7.48549107 C22.9482885,7.4482885 22.9296875,7.40550619 22.9296875,7.35714286 C22.9296875,7.30877952 22.9482885,7.26599721 22.9854911,7.22879464 L23.9285714,6.28571429 L22.9854911,5.34263393 C22.9482885,5.30543136 22.9296875,5.26264905 22.9296875,5.21428571 C22.9296875,5.16592238 22.9482885,5.12314007 22.9854911,5.0859375 L23.8002232,4.27120536 C23.8374258,4.23400279 23.8802081,4.21540179 23.9285714,4.21540179 C23.9769348,4.21540179 24.0197171,4.23400279 24.0569196,4.27120536 L25,5.21428571 L25.9430804,4.27120536 C25.9802829,4.23400279 26.0230652,4.21540179 26.0714286,4.21540179 C26.1197919,4.21540179 26.1625742,4.23400279 26.1997768,4.27120536 L27.0145089,5.0859375 C27.0517115,5.12314007 27.0703125,5.16592238 27.0703125,5.21428571 C27.0703125,5.26264905 27.0517115,5.30543136 27.0145089,5.34263393 L26.0714286,6.28571429 L27.0145089,7.22879464 C27.0517115,7.26599721 27.0703125,7.30877952 27.0703125,7.35714286 C27.0703125,7.40550619 27.0517115,7.4482885 27.0145089,7.48549107 Z M21.4285714,9.14285714 L28.5714286,9.14285714 L28.5714286,3.42857143 L21.4285714,3.42857143 L21.4285714,9.14285714 Z M30,2.89285714 L30,9.67857143 C30,9.92410837 29.9125753,10.1342997 29.7377232,10.3091518 C29.5628711,10.4840039 29.3526798,10.5714286 29.1071429,10.5714286 L20.8928571,10.5714286 C20.6473202,10.5714286 20.4371289,10.4840039 20.2622768,10.3091518 C20.0874247,10.1342997 20,9.92410837 20,9.67857143 L20,2.89285714 C20,2.6473202 20.0874247,2.43712885 20.2622768,2.26227679 C20.4371289,2.08742472 20.6473202,2 20.8928571,2 L29.1071429,2 C29.3526798,2 29.5628711,2.08742472 29.7377232,2.26227679 C29.9125753,2.43712885 30,2.6473202 30,2.89285714 Z" id="X"></path>
        </g>
    </g>
</svg>