<?xml version="1.0" encoding="UTF-8"?>
<svg width="15px" height="16px" viewBox="0 0 15 16" version="1.1" xmlns="http://www.w3.org/2000/svg" xmlns:xlink="http://www.w3.org/1999/xlink">
    <!-- Generator: Sketch 48.2 (47327) - http://www.bohemiancoding.com/sketch -->
    <title>Sync_Icon</title>
    <desc>Created with Sketch.</desc>
    <defs></defs>
    <g id="Connection-Bar/Connected" stroke="none" stroke-width="1" fill="none" fill-rule="evenodd" transform="translate(-342.000000, -23.000000)">
        <path d="M356.334263,32.4464286 C356.334263,32.4780508 356.331101,32.5001859 356.324777,32.5128348 C355.920013,34.2077838 355.072551,35.581747 353.782366,36.6347656 C352.492181,37.6877843 350.980663,38.2142857 349.247768,38.2142857 C348.3244,38.2142857 347.431087,38.0403663 346.567801,37.6925223 C345.704516,37.3446783 344.934527,36.8482175 344.257812,36.203125 L343.03404,37.4268973 C342.913876,37.5470616 342.771578,37.6071429 342.607143,37.6071429 C342.442708,37.6071429 342.30041,37.5470616 342.180246,37.4268973 C342.060081,37.306733 342,37.1644353 342,37 L342,32.75 C342,32.5855647 342.060081,32.443267 342.180246,32.3231027 C342.30041,32.2029384 342.442708,32.1428571 342.607143,32.1428571 L346.857143,32.1428571 C347.021578,32.1428571 347.163876,32.2029384 347.28404,32.3231027 C347.404204,32.443267 347.464286,32.5855647 347.464286,32.75 C347.464286,32.9144353 347.404204,33.056733 347.28404,33.1768973 L345.984375,34.4765625 C346.43341,34.8939753 346.942519,35.2165167 347.511719,35.4441964 C348.080918,35.6718761 348.672244,35.7857143 349.285714,35.7857143 C350.133189,35.7857143 350.923731,35.5801732 351.657366,35.1690848 C352.391001,34.7579965 352.979164,34.1919679 353.421875,33.4709821 C353.491444,33.3634667 353.659039,32.9934927 353.924665,32.3610491 C353.975261,32.2155871 354.070126,32.1428571 354.209263,32.1428571 L356.030692,32.1428571 C356.11291,32.1428571 356.184058,32.1728978 356.244141,32.2329799 C356.304223,32.2930621 356.334263,32.3642109 356.334263,32.4464286 Z M356.571429,24.8571429 L356.571429,29.1071429 C356.571429,29.2715782 356.511347,29.4138759 356.391183,29.5340402 C356.271019,29.6542045 356.128721,29.7142857 355.964286,29.7142857 L351.714286,29.7142857 C351.54985,29.7142857 351.407553,29.6542045 351.287388,29.5340402 C351.167224,29.4138759 351.107143,29.2715782 351.107143,29.1071429 C351.107143,28.9427075 351.167224,28.8004098 351.287388,28.6802455 L352.59654,27.3710938 C351.660524,26.504646 350.556926,26.0714286 349.285714,26.0714286 C348.43824,26.0714286 347.647697,26.2769697 346.914062,26.688058 C346.180428,27.0991464 345.592264,27.665175 345.149554,28.3861607 C345.079985,28.4936761 344.91239,28.8636501 344.646763,29.4960938 C344.596168,29.6415558 344.501303,29.7142857 344.362165,29.7142857 L342.47433,29.7142857 C342.392113,29.7142857 342.320964,29.6842451 342.260882,29.6241629 C342.2008,29.5640808 342.170759,29.492932 342.170759,29.4107143 L342.170759,29.344308 C342.581847,27.6493591 343.435633,26.2753959 344.732143,25.2223772 C346.028652,24.1693586 347.546494,23.6428571 349.285714,23.6428571 C350.209082,23.6428571 351.107138,23.8183576 351.979911,24.1693638 C352.852683,24.5203701 353.627415,25.0152498 354.304129,25.6540179 L355.537388,24.4302455 C355.657553,24.3100812 355.79985,24.25 355.964286,24.25 C356.128721,24.25 356.271019,24.3100812 356.391183,24.4302455 C356.511347,24.5504098 356.571429,24.6927075 356.571429,24.8571429 Z" id="Sync_Icon" fill="#FFFFFF"></path>
    </g>
</svg>