<?xml version="1.0" encoding="UTF-8"?>
<svg width="17px" height="12px" viewBox="0 0 17 12" version="1.1" xmlns="http://www.w3.org/2000/svg" xmlns:xlink="http://www.w3.org/1999/xlink">
    <!-- Generator: Sketch 48.2 (47327) - http://www.bohemiancoding.com/sketch -->
    <title>WiFi_Icon</title>
    <desc>Created with Sketch.</desc>
    <defs></defs>
    <g id="Connection-Bar/Connected---In-Progress" stroke="none" stroke-width="1" fill="none" fill-rule="evenodd" transform="translate(-9.000000, -24.000000)">
        <path d="M18.3498884,35.2801339 C17.9425203,35.687502 17.6830363,35.891183 17.5714286,35.891183 C17.4598209,35.891183 17.2003369,35.686107 16.7929688,35.2759487 C16.3856006,34.8657904 16.1819196,34.6049113 16.1819196,34.4933036 C16.1819196,34.3147313 16.3563041,34.1640631 16.7050781,34.0412946 C17.0538522,33.9185262 17.3426328,33.8571429 17.5714286,33.8571429 C17.8002244,33.8571429 18.089005,33.9185262 18.437779,34.0412946 C18.7865531,34.1640631 18.9609375,34.3147313 18.9609375,34.4933036 C18.9609375,34.6049113 18.7572565,34.8671854 18.3498884,35.2801339 Z M19.8314732,33.6227679 C19.8203124,33.6227679 19.7087064,33.5530141 19.4966518,33.4135045 C19.2845972,33.2739948 19.0013969,33.1344873 18.6470424,32.9949777 C18.292688,32.8554681 17.9341536,32.7857143 17.5714286,32.7857143 C17.2087035,32.7857143 16.8501692,32.8554681 16.4958147,32.9949777 C16.1414603,33.1344873 15.8596551,33.2739948 15.6503906,33.4135045 C15.4411262,33.5530141 15.3281251,33.6227679 15.3113839,33.6227679 C15.210937,33.6227679 14.9500579,33.4135066 14.5287388,32.9949777 C14.1074198,32.5764488 13.8967634,32.3169648 13.8967634,32.2165179 C13.8967634,32.1439729 13.9246649,32.0797994 13.9804688,32.0239955 C14.4157388,31.5943059 14.9626083,31.2566977 15.6210938,31.0111607 C16.2795792,30.7656238 16.9296843,30.6428571 17.5714286,30.6428571 C18.2131729,30.6428571 18.863278,30.7656238 19.5217634,31.0111607 C20.1802488,31.2566977 20.7271184,31.5943059 21.1623884,32.0239955 C21.2181922,32.0797994 21.2460938,32.1439729 21.2460938,32.2165179 C21.2460938,32.3169648 21.0354374,32.5764488 20.6141183,32.9949777 C20.1927992,33.4135066 19.9319201,33.6227679 19.8314732,33.6227679 Z M22.1166295,31.3459821 C22.0552452,31.3459821 21.9910718,31.3236609 21.9241071,31.2790179 C21.1651748,30.6930774 20.4620568,30.2619991 19.8147321,29.9857701 C19.1674075,29.709541 18.4196471,29.5714286 17.5714286,29.5714286 C17.0970958,29.5714286 16.6213752,29.6328119 16.1442522,29.7555804 C15.6671293,29.8783488 15.2513969,30.0262268 14.8970424,30.1992188 C14.542688,30.3722107 14.2260059,30.5452 13.9469866,30.718192 C13.6679674,30.8911839 13.4475455,31.0390619 13.2857143,31.1618304 C13.1238831,31.2845988 13.0373884,31.3459821 13.0262277,31.3459821 C12.9313611,31.3459821 12.6746673,31.1367208 12.2561384,30.718192 C11.8376095,30.2996631 11.6283482,30.0401791 11.6283482,29.9397321 C11.6283482,29.8727675 11.6562497,29.8113842 11.7120536,29.7555804 C12.4486644,29.0189695 13.3415126,28.4469886 14.390625,28.0396205 C15.4397374,27.6322524 16.4999946,27.4285714 17.5714286,27.4285714 C18.6428625,27.4285714 19.7031198,27.6322524 20.7522321,28.0396205 C21.8013445,28.4469886 22.6941927,29.0189695 23.4308036,29.7555804 C23.4866074,29.8113842 23.5145089,29.8727675 23.5145089,29.9397321 C23.5145089,30.0401791 23.3052476,30.2996631 22.8867188,30.718192 C22.4681899,31.1367208 22.211496,31.3459821 22.1166295,31.3459821 Z M24.3850446,29.077567 C24.3236604,29.077567 24.2622771,29.0524556 24.2008929,29.0022321 C23.2020039,28.1261117 22.165463,27.4662411 21.0912388,27.0226004 C20.0170147,26.5789598 18.8437564,26.3571429 17.5714286,26.3571429 C16.2991008,26.3571429 15.1258424,26.5789598 14.0516183,27.0226004 C12.9773942,27.4662411 11.9408532,28.1261117 10.9419643,29.0022321 C10.8805801,29.0524556 10.8191967,29.077567 10.7578125,29.077567 C10.662946,29.077567 10.404857,28.8683057 9.98353795,28.4497768 C9.56221888,28.0312479 9.3515625,27.7717639 9.3515625,27.671317 C9.3515625,27.598772 9.37946401,27.5345985 9.43526786,27.4787946 C10.4787999,26.440843 11.7204169,25.6372796 13.1601562,25.0680804 C14.5998956,24.4988811 16.070305,24.2142857 17.5714286,24.2142857 C19.0725521,24.2142857 20.5429616,24.4988811 21.9827009,25.0680804 C23.4224402,25.6372796 24.6640573,26.440843 25.7075893,27.4787946 C25.7633931,27.5345985 25.7912946,27.598772 25.7912946,27.671317 C25.7912946,27.7717639 25.5806383,28.0312479 25.1593192,28.4497768 C24.7380001,28.8683057 24.4799112,29.077567 24.3850446,29.077567 Z" id="WiFi_Icon" fill="#FFFFFF"></path>
    </g>
</svg>