<?xml version="1.0" encoding="UTF-8"?>
<svg width="42px" height="16px" viewBox="0 0 42 16" version="1.1" xmlns="http://www.w3.org/2000/svg" xmlns:xlink="http://www.w3.org/1999/xlink">
    <!-- Generator: Sketch 48.2 (47327) - http://www.bohemiancoding.com/sketch -->
    <title>COM</title>
    <desc>Created with Sketch.</desc>
    <defs></defs>
    <g id="Tours/Standard-Tour/Tags/Completed-Round" stroke="none" stroke-width="1" fill="none" fill-rule="evenodd">
        <g id="COM">
            <path d="M4.10221608,-6.09823649e-16 L37.8977839,1.65734439e-16 C39.3242138,-9.62964821e-17 39.8414718,0.148520969 40.3629532,0.427412301 C40.8844347,0.706303632 41.2936964,1.11556533 41.5725877,1.63704678 C41.851479,2.15852823 42,2.67578618 42,4.10221608 L42,11.8977839 C42,13.3242138 41.851479,13.8414718 41.5725877,14.3629532 C41.2936964,14.8844347 40.8844347,15.2936964 40.3629532,15.5725877 C39.8414718,15.851479 39.3242138,16 37.8977839,16 L4.10221608,16 C2.67578618,16 2.15852823,15.851479 1.63704678,15.5725877 C1.11556533,15.2936964 0.706303632,14.8844347 0.427412301,14.3629532 C0.148520969,13.8414718 -3.79891555e-16,13.3242138 -5.54578836e-16,11.8977839 L1.10489626e-16,4.10221608 C-6.41976547e-17,2.67578618 0.148520969,2.15852823 0.427412301,1.63704678 C0.706303632,1.11556533 1.11556533,0.706303632 1.63704678,0.427412301 C2.15852823,0.148520969 2.67578618,-3.47792728e-16 4.10221608,-6.09823649e-16 Z" id="Rectangle-Copy" fill="#6AB442"></path>
            <path d="M13.6783997,6.87839983 C13.6485328,6.67679883 13.5813335,6.49200069 13.4767997,6.32399986 C13.3722658,6.15599903 13.2416005,6.00853385 13.0847997,5.88159989 C12.9279989,5.75466593 12.7506674,5.65573359 12.5527997,5.58479991 C12.3549321,5.51386622 12.1477342,5.47839991 11.9311998,5.47839991 C11.5354645,5.47839991 11.1994679,5.55493248 10.9231998,5.7079999 C10.6469318,5.86106732 10.422934,6.06639859 10.2511999,6.32399986 C10.0794657,6.58160113 9.95440028,6.87466485 9.87599989,7.20319981 C9.7975995,7.53173477 9.7583999,7.87146468 9.7583999,8.22239975 C9.7583999,8.55840141 9.7975995,8.88506479 9.87599989,9.20239969 C9.95440028,9.51973459 10.0794657,9.80533172 10.2511999,10.0591996 C10.422934,10.3130676 10.6469318,10.5165322 10.9231998,10.6695996 C11.1994679,10.822667 11.5354645,10.8991996 11.9311998,10.8991996 C12.4688024,10.8991996 12.8887982,10.7349346 13.1911997,10.4063996 C13.4936012,10.0778647 13.6783993,9.64480235 13.7455997,9.1071997 L15.4479996,9.1071997 C15.4031993,9.60746883 15.2874672,10.0591976 15.1007996,10.4623996 C14.914132,10.8656016 14.6677345,11.2090648 14.3615996,11.4927996 C14.0554648,11.7765343 13.6970684,11.9930654 13.2863997,12.1423995 C12.875731,12.2917336 12.4240022,12.3663995 11.9311998,12.3663995 C11.3189301,12.3663995 10.7682689,12.2600006 10.2791999,12.0471995 C9.79013078,11.8343985 9.3776016,11.5413348 9.04159994,11.1679996 C8.70559828,10.7946644 8.44800087,10.3560021 8.26879998,9.85199965 C8.0895991,9.34799716 8,8.80480263 8,8.22239975 C8,7.62506346 8.0895991,7.07066904 8.26879998,6.55919985 C8.44800087,6.04773065 8.70559828,5.60160181 9.04159994,5.22079993 C9.3776016,4.83999805 9.79013078,4.54133438 10.2791999,4.32479998 C10.7682689,4.10826558 11.3189301,4 11.9311998,4 C12.3717353,4 12.7879978,4.06346603 13.1799997,4.19039999 C13.5720016,4.31733395 13.9229314,4.50213209 14.2327996,4.74479996 C14.5426678,4.98746782 14.7983986,5.28799813 14.9999996,5.6463999 C15.2016006,6.00480167 15.3285326,6.41546421 15.3807996,6.87839983 L13.6783997,6.87839983 Z M18.0575994,8.22239975 C18.0575994,8.55840141 18.096799,8.88506479 18.1751994,9.20239969 C18.2535998,9.51973459 18.3786652,9.80533172 18.5503994,10.0591996 C18.7221336,10.3130676 18.9461313,10.5165322 19.2223993,10.6695996 C19.4986674,10.822667 19.834664,10.8991996 20.2303993,10.8991996 C20.6261346,10.8991996 20.9621312,10.822667 21.2383992,10.6695996 C21.5146672,10.5165322 21.738665,10.3130676 21.9103992,10.0591996 C22.0821334,9.80533172 22.2071988,9.51973459 22.2855991,9.20239969 C22.3639995,8.88506479 22.4031991,8.55840141 22.4031991,8.22239975 C22.4031991,7.87146468 22.3639995,7.53173477 22.2855991,7.20319981 C22.2071988,6.87466485 22.0821334,6.58160113 21.9103992,6.32399986 C21.738665,6.06639859 21.5146672,5.86106732 21.2383992,5.7079999 C20.9621312,5.55493248 20.6261346,5.47839991 20.2303993,5.47839991 C19.834664,5.47839991 19.4986674,5.55493248 19.2223993,5.7079999 C18.9461313,5.86106732 18.7221336,6.06639859 18.5503994,6.32399986 C18.3786652,6.58160113 18.2535998,6.87466485 18.1751994,7.20319981 C18.096799,7.53173477 18.0575994,7.87146468 18.0575994,8.22239975 Z M16.2991995,8.22239975 C16.2991995,7.62506346 16.3887986,7.07066904 16.5679995,6.55919985 C16.7472004,6.04773065 17.0047978,5.60160181 17.3407994,5.22079993 C17.6768011,4.83999805 18.0893303,4.54133438 18.5783994,4.32479998 C19.0674685,4.10826558 19.6181296,4 20.2303993,4 C20.8501357,4 21.4026634,4.10826558 21.8879992,4.32479998 C22.3733349,4.54133438 22.7839974,4.83999805 23.1199991,5.22079993 C23.4560008,5.60160181 23.7135982,6.04773065 23.8927991,6.55919985 C24.0719999,7.07066904 24.161599,7.62506346 24.161599,8.22239975 C24.161599,8.80480263 24.0719999,9.34799716 23.8927991,9.85199965 C23.7135982,10.3560021 23.4560008,10.7946644 23.1199991,11.1679996 C22.7839974,11.5413348 22.3733349,11.8343985 21.8879992,12.0471995 C21.4026634,12.2600006 20.8501357,12.3663995 20.2303993,12.3663995 C19.6181296,12.3663995 19.0674685,12.2600006 18.5783994,12.0471995 C18.0893303,11.8343985 17.6768011,11.5413348 17.3407994,11.1679996 C17.0047978,10.7946644 16.7472004,10.3560021 16.5679995,9.85199965 C16.3887986,9.34799716 16.2991995,8.80480263 16.2991995,8.22239975 Z M25.359999,4.19039999 L27.8351988,4.19039999 L29.7055987,9.68959966 L29.7279987,9.68959966 L31.4975986,4.19039999 L33.9727985,4.19039999 L33.9727985,12.1871995 L32.3263986,12.1871995 L32.3263986,6.51999985 L32.3039986,6.51999985 L30.3439987,12.1871995 L28.9887987,12.1871995 L27.0287989,6.57599985 L27.0063989,6.57599985 L27.0063989,12.1871995 L25.359999,12.1871995 L25.359999,4.19039999 Z" fill="#FFFFFF"></path>
        </g>
    </g>
</svg>