<?xml version="1.0" encoding="UTF-8"?>
<svg width="42px" height="16px" viewBox="0 0 42 16" version="1.1" xmlns="http://www.w3.org/2000/svg" xmlns:xlink="http://www.w3.org/1999/xlink">
    <!-- Generator: Sketch 48.2 (47327) - http://www.bohemiancoding.com/sketch -->
    <title>OOS</title>
    <desc>Created with Sketch.</desc>
    <defs></defs>
    <g id="Tags/OOS" stroke="none" stroke-width="1" fill="none" fill-rule="evenodd">
        <g id="OOS">
            <path d="M4.10221608,-6.09823649e-16 L37.8977839,1.65734439e-16 C39.3242138,-9.62964821e-17 39.8414718,0.148520969 40.3629532,0.427412301 C40.8844347,0.706303632 41.2936964,1.11556533 41.5725877,1.63704678 C41.851479,2.15852823 42,2.67578618 42,4.10221608 L42,11.8977839 C42,13.3242138 41.851479,13.8414718 41.5725877,14.3629532 C41.2936964,14.8844347 40.8844347,15.2936964 40.3629532,15.5725877 C39.8414718,15.851479 39.3242138,16 37.8977839,16 L4.10221608,16 C2.67578618,16 2.15852823,15.851479 1.63704678,15.5725877 C1.11556533,15.2936964 0.706303632,14.8844347 0.427412301,14.3629532 C0.148520969,13.8414718 -3.79891555e-16,13.3242138 -5.54578836e-16,11.8977839 L1.10489626e-16,4.10221608 C-6.41976547e-17,2.67578618 0.148520969,2.15852823 0.427412301,1.63704678 C0.706303632,1.11556533 1.11556533,0.706303632 1.63704678,0.427412301 C2.15852823,0.148520969 2.67578618,-3.47792728e-16 4.10221608,-6.09823649e-16 Z" id="Rectangle-Copy" fill="#ED3426"></path>
            <path d="M10.7583999,8.22239975 C10.7583999,8.55840141 10.7975995,8.88506479 10.8759999,9.20239969 C10.9544003,9.51973459 11.0794657,9.80533172 11.2511999,10.0591996 C11.422934,10.3130676 11.6469318,10.5165322 11.9231998,10.6695996 C12.1994679,10.822667 12.5354645,10.8991996 12.9311998,10.8991996 C13.3269351,10.8991996 13.6629317,10.822667 13.9391997,10.6695996 C14.2154677,10.5165322 14.4394655,10.3130676 14.6111997,10.0591996 C14.7829338,9.80533172 14.9079993,9.51973459 14.9863996,9.20239969 C15.0648,8.88506479 15.1039996,8.55840141 15.1039996,8.22239975 C15.1039996,7.87146468 15.0648,7.53173477 14.9863996,7.20319981 C14.9079993,6.87466485 14.7829338,6.58160113 14.6111997,6.32399986 C14.4394655,6.06639859 14.2154677,5.86106732 13.9391997,5.7079999 C13.6629317,5.55493248 13.3269351,5.47839991 12.9311998,5.47839991 C12.5354645,5.47839991 12.1994679,5.55493248 11.9231998,5.7079999 C11.6469318,5.86106732 11.422934,6.06639859 11.2511999,6.32399986 C11.0794657,6.58160113 10.9544003,6.87466485 10.8759999,7.20319981 C10.7975995,7.53173477 10.7583999,7.87146468 10.7583999,8.22239975 Z M9,8.22239975 C9,7.62506346 9.0895991,7.07066904 9.26879998,6.55919985 C9.44800087,6.04773065 9.70559828,5.60160181 10.0415999,5.22079993 C10.3776016,4.83999805 10.7901308,4.54133438 11.2791999,4.32479998 C11.7682689,4.10826558 12.3189301,4 12.9311998,4 C13.5509362,4 14.1034639,4.10826558 14.5887997,4.32479998 C15.0741354,4.54133438 15.4847979,4.83999805 15.8207996,5.22079993 C16.1568013,5.60160181 16.4143987,6.04773065 16.5935995,6.55919985 C16.7728004,7.07066904 16.8623995,7.62506346 16.8623995,8.22239975 C16.8623995,8.80480263 16.7728004,9.34799716 16.5935995,9.85199965 C16.4143987,10.3560021 16.1568013,10.7946644 15.8207996,11.1679996 C15.4847979,11.5413348 15.0741354,11.8343985 14.5887997,12.0471995 C14.1034639,12.2600006 13.5509362,12.3663995 12.9311998,12.3663995 C12.3189301,12.3663995 11.7682689,12.2600006 11.2791999,12.0471995 C10.7901308,11.8343985 10.3776016,11.5413348 10.0415999,11.1679996 C9.70559828,10.7946644 9.44800087,10.3560021 9.26879998,9.85199965 C9.0895991,9.34799716 9,8.80480263 9,8.22239975 Z M19.4719994,8.22239975 C19.4719994,8.55840141 19.511199,8.88506479 19.5895994,9.20239969 C19.6679998,9.51973459 19.7930652,9.80533172 19.9647993,10.0591996 C20.1365335,10.3130676 20.3605313,10.5165322 20.6367993,10.6695996 C20.9130673,10.822667 21.249064,10.8991996 21.6447992,10.8991996 C22.0405345,10.8991996 22.3765312,10.822667 22.6527992,10.6695996 C22.9290672,10.5165322 23.153065,10.3130676 23.3247991,10.0591996 C23.4965333,9.80533172 23.6215987,9.51973459 23.6999991,9.20239969 C23.7783995,8.88506479 23.8175991,8.55840141 23.8175991,8.22239975 C23.8175991,7.87146468 23.7783995,7.53173477 23.6999991,7.20319981 C23.6215987,6.87466485 23.4965333,6.58160113 23.3247991,6.32399986 C23.153065,6.06639859 22.9290672,5.86106732 22.6527992,5.7079999 C22.3765312,5.55493248 22.0405345,5.47839991 21.6447992,5.47839991 C21.249064,5.47839991 20.9130673,5.55493248 20.6367993,5.7079999 C20.3605313,5.86106732 20.1365335,6.06639859 19.9647993,6.32399986 C19.7930652,6.58160113 19.6679998,6.87466485 19.5895994,7.20319981 C19.511199,7.53173477 19.4719994,7.87146468 19.4719994,8.22239975 Z M17.7135995,8.22239975 C17.7135995,7.62506346 17.8031986,7.07066904 17.9823995,6.55919985 C18.1616003,6.04773065 18.4191978,5.60160181 18.7551994,5.22079993 C19.0912011,4.83999805 19.5037303,4.54133438 19.9927993,4.32479998 C20.4818684,4.10826558 21.0325296,4 21.6447992,4 C22.2645356,4 22.8170634,4.10826558 23.3023991,4.32479998 C23.7877349,4.54133438 24.1983974,4.83999805 24.5343991,5.22079993 C24.8704007,5.60160181 25.1279981,6.04773065 25.307199,6.55919985 C25.4863999,7.07066904 25.575999,7.62506346 25.575999,8.22239975 C25.575999,8.80480263 25.4863999,9.34799716 25.307199,9.85199965 C25.1279981,10.3560021 24.8704007,10.7946644 24.5343991,11.1679996 C24.1983974,11.5413348 23.7877349,11.8343985 23.3023991,12.0471995 C22.8170634,12.2600006 22.2645356,12.3663995 21.6447992,12.3663995 C21.0325296,12.3663995 20.4818684,12.2600006 19.9927993,12.0471995 C19.5037303,11.8343985 19.0912011,11.5413348 18.7551994,11.1679996 C18.4191978,10.7946644 18.1616003,10.3560021 17.9823995,9.85199965 C17.8031986,9.34799716 17.7135995,8.80480263 17.7135995,8.22239975 Z M27.9727989,9.53279967 C27.9727989,9.801601 28.0213317,10.029332 28.1183989,10.2159996 C28.215466,10.4026672 28.3442647,10.5538657 28.5047988,10.6695996 C28.665333,10.7853335 28.8538644,10.8711993 29.0703988,10.9271996 C29.2869332,10.9831999 29.510931,11.0111996 29.7423988,11.0111996 C29.8991995,11.0111996 30.0671978,10.998133 30.2463987,10.9719996 C30.4255996,10.9458661 30.5935979,10.8954666 30.7503987,10.8207996 C30.9071995,10.7461326 31.0378648,10.6434669 31.1423987,10.5127996 C31.2469325,10.3821323 31.2991987,10.2160006 31.2991987,10.0143996 C31.2991987,9.79786524 31.2301327,9.62240034 31.0919987,9.48799967 C30.9538647,9.35359901 30.7727998,9.24160014 30.5487987,9.15199969 C30.3247976,9.06239925 30.0709335,8.98400004 29.7871988,8.91679971 C29.503464,8.84959937 29.2160003,8.77493346 28.9247988,8.69279972 C28.6261307,8.61813268 28.3349336,8.52666694 28.0511989,8.41839974 C27.7674641,8.31013254 27.5136,8.17013394 27.2895989,7.99839976 C27.0655978,7.82666558 26.884533,7.61200107 26.7463989,7.3543998 C26.6082649,7.09679853 26.539199,6.78506833 26.539199,6.41919986 C26.539199,6.00853116 26.6269314,5.65200141 26.8023989,5.34959992 C26.9778665,5.04719843 27.2074642,4.79520096 27.4911989,4.59359996 C27.7749336,4.39199897 28.0959971,4.24266714 28.4543988,4.14559999 C28.8128006,4.04853285 29.171197,4 29.5295988,4 C29.9477342,4 30.3490635,4.0466662 30.7335987,4.13999999 C31.1181339,4.23333379 31.4597305,4.38453227 31.7583986,4.59359996 C32.0570668,4.80266766 32.2941311,5.06959831 32.4695986,5.39439992 C32.6450661,5.71920152 32.7327986,6.11306423 32.7327986,6.57599985 L31.0303987,6.57599985 C31.0154653,6.33706533 30.9650658,6.13920066 30.8791987,5.98239988 C30.7933316,5.82559911 30.6794661,5.70240035 30.5375987,5.6127999 C30.3957313,5.52319946 30.233333,5.45973343 30.0503987,5.42239992 C29.8674645,5.3850664 29.6677332,5.36639992 29.4511988,5.36639992 C29.3093314,5.36639992 29.1674662,5.3813331 29.0255988,5.41119992 C28.8837314,5.44106673 28.7549327,5.49333287 28.6391988,5.56799991 C28.5234649,5.64266694 28.4282659,5.73599934 28.3535988,5.84799989 C28.2789318,5.96000044 28.2415989,6.10186568 28.2415989,6.27359986 C28.2415989,6.43040064 28.2714652,6.5573327 28.3311988,6.65439984 C28.3909325,6.75146699 28.5085313,6.84106609 28.6839988,6.92319983 C28.8594664,7.00533356 29.1021306,7.08746607 29.4119988,7.16959981 C29.721867,7.25173355 30.1269296,7.35626583 30.6271987,7.48319979 C30.7765328,7.51306661 30.9837307,7.5671994 31.2487987,7.64559978 C31.5138667,7.72400017 31.777064,7.84906558 32.0383986,8.02079976 C32.2997333,8.19253394 32.5255976,8.42213163 32.7159986,8.70959972 C32.9063995,8.99706781 33.0015986,9.36479744 33.0015986,9.81279965 C33.0015986,10.1786681 32.9306659,10.518398 32.7887986,10.8319996 C32.6469312,11.1456011 32.436,11.4162651 32.1559986,11.6439995 C31.8759972,11.871734 31.5288007,12.0490656 31.1143987,12.1759995 C30.6999966,12.3029335 30.2202681,12.3663995 29.6751988,12.3663995 C29.2346633,12.3663995 28.8072009,12.3122667 28.3927988,12.2039995 C27.9783968,12.0957323 27.6125338,11.9258674 27.2951989,11.6943995 C26.977864,11.4629317 26.7258665,11.1680014 26.539199,10.8095996 C26.3525314,10.4511978 26.2629323,10.0256021 26.270399,9.53279967 L27.9727989,9.53279967 Z" fill="#FFFFFF"></path>
        </g>
    </g>
</svg>