<?xml version="1.0" encoding="UTF-8"?>
<svg width="42px" height="16px" viewBox="0 0 42 16" version="1.1" xmlns="http://www.w3.org/2000/svg" xmlns:xlink="http://www.w3.org/1999/xlink">
    <!-- Generator: Sketch 48.2 (47327) - http://www.bohemiancoding.com/sketch -->
    <title>PAR</title>
    <desc>Created with Sketch.</desc>
    <defs></defs>
    <g id="Tours/Standard-Tour/Tags/Partial-Round" stroke="none" stroke-width="1" fill="none" fill-rule="evenodd">
        <g id="PAR">
            <path d="M4.10221608,-6.09823649e-16 L37.8977839,1.65734439e-16 C39.3242138,-9.62964821e-17 39.8414718,0.148520969 40.3629532,0.427412301 C40.8844347,0.706303632 41.2936964,1.11556533 41.5725877,1.63704678 C41.851479,2.15852823 42,2.67578618 42,4.10221608 L42,11.8977839 C42,13.3242138 41.851479,13.8414718 41.5725877,14.3629532 C41.2936964,14.8844347 40.8844347,15.2936964 40.3629532,15.5725877 C39.8414718,15.851479 39.3242138,16 37.8977839,16 L4.10221608,16 C2.67578618,16 2.15852823,15.851479 1.63704678,15.5725877 C1.11556533,15.2936964 0.706303632,14.8844347 0.427412301,14.3629532 C0.148520969,13.8414718 -3.79891555e-16,13.3242138 -5.54578836e-16,11.8977839 L1.10489626e-16,4.10221608 C-6.41976547e-17,2.67578618 0.148520969,2.15852823 0.427412301,1.63704678 C0.706303632,1.11556533 1.11556533,0.706303632 1.63704678,0.427412301 C2.15852823,0.148520969 2.67578618,-3.47792728e-16 4.10221608,-6.09823649e-16 Z" id="Rectangle-Copy" fill="#1D87E9"></path>
            <path d="M11.7583999,7.76319978 L13.1247998,7.76319978 C13.3264008,7.76319978 13.5205322,7.74826659 13.7071998,7.71839978 C13.8938674,7.68853296 14.0581324,7.63066688 14.1999997,7.54479979 C14.3418671,7.4589327 14.4557326,7.33760059 14.5415997,7.18079981 C14.6274668,7.02399904 14.6703997,6.81866777 14.6703997,6.56479985 C14.6703997,6.31093193 14.6274668,6.10560066 14.5415997,5.94879988 C14.4557326,5.79199911 14.3418671,5.670667 14.1999997,5.58479991 C14.0581324,5.49893281 13.8938674,5.44106673 13.7071998,5.41119992 C13.5205322,5.3813331 13.3264008,5.36639992 13.1247998,5.36639992 L11.7583999,5.36639992 L11.7583999,7.76319978 Z M10,4 L13.6063998,4 C14.1066689,4 14.5322646,4.07279927 14.8831997,4.21839999 C15.2341348,4.36400071 15.5197319,4.55626544 15.7399997,4.79519995 C15.9602674,5.03413447 16.1207991,5.30666506 16.2215996,5.6127999 C16.3224001,5.91893475 16.3727996,6.23626489 16.3727996,6.56479985 C16.3727996,6.8858681 16.3224001,7.20133159 16.2215996,7.51119979 C16.1207991,7.82106799 15.9602674,8.09546523 15.7399997,8.33439974 C15.5197319,8.57333426 15.2341348,8.76559899 14.8831997,8.91119971 C14.5322646,9.05680043 14.1066689,9.12959969 13.6063998,9.12959969 L11.7583999,9.12959969 L11.7583999,11.9967995 L10,11.9967995 L10,4 Z M19.4863994,8.90559971 L21.5583993,8.90559971 L20.5503994,5.97119988 L20.5279994,5.97119988 L19.4863994,8.90559971 Z M19.6543994,4 L21.4575993,4 L24.4479991,11.9967995 L22.6223992,11.9967995 L22.0175993,10.2159996 L19.0271995,10.2159996 L18.3999995,11.9967995 L16.6303996,11.9967995 L19.6543994,4 Z M26.900799,7.61759978 L28.8271989,7.61759978 C29.2304009,7.61759978 29.5327978,7.52800069 29.7343988,7.3487998 C29.9359998,7.16959892 30.0367988,6.87840184 30.0367988,6.47519985 C30.0367988,6.08693127 29.9359998,5.80506744 29.7343988,5.6295999 C29.5327978,5.45413237 29.2304009,5.36639992 28.8271989,5.36639992 L26.900799,5.36639992 L26.900799,7.61759978 Z M25.1423991,4 L29.4543988,4 C29.8128006,4 30.1357307,4.05786608 30.4231988,4.17359999 C30.7106669,4.28933389 30.9570644,4.44799897 31.1623987,4.64959996 C31.3677331,4.85120096 31.5245315,5.08453194 31.6327987,5.34959992 C31.7410659,5.6146679 31.7951987,5.90026502 31.7951987,6.20639987 C31.7951987,6.67680219 31.6962664,7.08373143 31.4983987,7.4271998 C31.3005311,7.77066816 30.977601,8.03199886 30.5295988,8.21119975 L30.5295988,8.23359975 C30.7461332,8.29333338 30.9253314,8.38479912 31.0671987,8.50799973 C31.2090661,8.63120034 31.3247983,8.77679888 31.4143987,8.94479971 C31.5039992,9.11280054 31.5693318,9.29759868 31.6103987,9.49919967 C31.6514656,9.70080067 31.6794653,9.90239864 31.6943987,10.1039996 C31.7018654,10.2309336 31.709332,10.3802654 31.7167987,10.5519996 C31.7242654,10.7237338 31.7373319,10.8991987 31.7559987,11.0783996 C31.7746655,11.2576005 31.8045318,11.4274654 31.8455987,11.5879995 C31.8866656,11.7485337 31.9482649,11.884799 32.0303987,11.9967995 L30.2719988,11.9967995 C30.1749316,11.7429316 30.1151989,11.4405346 30.0927988,11.0895996 C30.0703987,10.7386645 30.036799,10.4026679 29.9919988,10.0815996 C29.9322652,9.66346424 29.8053331,9.35733398 29.6111988,9.16319969 C29.4170645,8.9690654 29.0997344,8.87199971 28.6591989,8.87199971 L26.900799,8.87199971 L26.900799,11.9967995 L25.1423991,11.9967995 L25.1423991,4 Z" fill="#FFFFFF"></path>
        </g>
    </g>
</svg>