<?xml version="1.0" encoding="UTF-8"?>
<svg width="42px" height="16px" viewBox="0 0 42 16" version="1.1" xmlns="http://www.w3.org/2000/svg" xmlns:xlink="http://www.w3.org/1999/xlink">
    <!-- Generator: Sketch 48.2 (47327) - http://www.bohemiancoding.com/sketch -->
    <title>SUR</title>
    <desc>Created with Sketch.</desc>
    <defs></defs>
    <g id="Tags/SUR" stroke="none" stroke-width="1" fill="none" fill-rule="evenodd">
        <g id="SUR">
            <path d="M4.10221608,-6.09823649e-16 L37.8977839,1.65734439e-16 C39.3242138,-9.62964821e-17 39.8414718,0.148520969 40.3629532,0.427412301 C40.8844347,0.706303632 41.2936964,1.11556533 41.5725877,1.63704678 C41.851479,2.15852823 42,2.67578618 42,4.10221608 L42,11.8977839 C42,13.3242138 41.851479,13.8414718 41.5725877,14.3629532 C41.2936964,14.8844347 40.8844347,15.2936964 40.3629532,15.5725877 C39.8414718,15.851479 39.3242138,16 37.8977839,16 L4.10221608,16 C2.67578618,16 2.15852823,15.851479 1.63704678,15.5725877 C1.11556533,15.2936964 0.706303632,14.8844347 0.427412301,14.3629532 C0.148520969,13.8414718 -3.79891555e-16,13.3242138 -5.54578836e-16,11.8977839 L1.10489626e-16,4.10221608 C-6.41976547e-17,2.67578618 0.148520969,2.15852823 0.427412301,1.63704678 C0.706303632,1.11556533 1.11556533,0.706303632 1.63704678,0.427412301 C2.15852823,0.148520969 2.67578618,-3.47792728e-16 4.10221608,-6.09823649e-16 Z" id="Rectangle-Copy" fill="#6AB442"></path>
            <path d="M11.7028307,9.53279967 C11.7028307,9.801601 11.7513635,10.029332 11.8484307,10.2159996 C11.9454978,10.4026672 12.0742965,10.5538657 12.2348306,10.6695996 C12.3953648,10.7853335 12.5838962,10.8711993 12.8004306,10.9271996 C13.016965,10.9831999 13.2409628,11.0111996 13.4724306,11.0111996 C13.6292313,11.0111996 13.7972297,10.998133 13.9764305,10.9719996 C14.1556314,10.9458661 14.3236297,10.8954666 14.4804305,10.8207996 C14.6372313,10.7461326 14.7678966,10.6434669 14.8724305,10.5127996 C14.9769643,10.3821323 15.0292305,10.2160006 15.0292305,10.0143996 C15.0292305,9.79786524 14.9601645,9.62240034 14.8220305,9.48799967 C14.6838965,9.35359901 14.5028316,9.24160014 14.2788305,9.15199969 C14.0548294,9.06239925 13.8009653,8.98400004 13.5172306,8.91679971 C13.2334958,8.84959937 12.9460321,8.77493346 12.6548306,8.69279972 C12.3561625,8.61813268 12.0649654,8.52666694 11.7812307,8.41839974 C11.4974959,8.31013254 11.2436318,8.17013394 11.0196307,7.99839976 C10.7956296,7.82666558 10.6145648,7.61200107 10.4764307,7.3543998 C10.3382967,7.09679853 10.2692308,6.78506833 10.2692308,6.41919986 C10.2692308,6.00853116 10.3569632,5.65200141 10.5324307,5.34959992 C10.7078983,5.04719843 10.937496,4.79520096 11.2212307,4.59359996 C11.5049654,4.39199897 11.8260289,4.24266714 12.1844306,4.14559999 C12.5428324,4.04853285 12.9012288,4 13.2596306,4 C13.677766,4 14.0790953,4.0466662 14.4636305,4.13999999 C14.8481657,4.23333379 15.1897623,4.38453227 15.4884305,4.59359996 C15.7870986,4.80266766 16.0241629,5.06959831 16.1996304,5.39439992 C16.3750979,5.71920152 16.4628304,6.11306423 16.4628304,6.57599985 L14.7604305,6.57599985 C14.7454971,6.33706533 14.6950976,6.13920066 14.6092305,5.98239988 C14.5233634,5.82559911 14.4094979,5.70240035 14.2676305,5.6127999 C14.1257632,5.52319946 13.9633648,5.45973343 13.7804306,5.42239992 C13.5974963,5.3850664 13.397765,5.36639992 13.1812306,5.36639992 C13.0393632,5.36639992 12.897498,5.3813331 12.7556306,5.41119992 C12.6137632,5.44106673 12.4849645,5.49333287 12.3692306,5.56799991 C12.2534967,5.64266694 12.1582977,5.73599934 12.0836307,5.84799989 C12.0089636,5.96000044 11.9716307,6.10186568 11.9716307,6.27359986 C11.9716307,6.43040064 12.001497,6.5573327 12.0612307,6.65439984 C12.1209643,6.75146699 12.2385631,6.84106609 12.4140306,6.92319983 C12.5894982,7.00533356 12.8321624,7.08746607 13.1420306,7.16959981 C13.4518988,7.25173355 13.8569614,7.35626583 14.3572305,7.48319979 C14.5065646,7.51306661 14.7137625,7.5671994 14.9788305,7.64559978 C15.2438985,7.72400017 15.5070958,7.84906558 15.7684304,8.02079976 C16.0297651,8.19253394 16.2556295,8.42213163 16.4460304,8.70959972 C16.6364313,8.99706781 16.7316304,9.36479744 16.7316304,9.81279965 C16.7316304,10.1786681 16.6606978,10.518398 16.5188304,10.8319996 C16.376963,11.1456011 16.1660318,11.4162651 15.8860304,11.6439995 C15.606029,11.871734 15.2588325,12.0490656 14.8444305,12.1759995 C14.4300284,12.3029335 13.9502999,12.3663995 13.4052306,12.3663995 C12.9646951,12.3663995 12.5372327,12.3122667 12.1228307,12.2039995 C11.7084286,12.0957323 11.3425656,11.9258674 11.0252307,11.6943995 C10.7078958,11.4629317 10.4558984,11.1680014 10.2692308,10.8095996 C10.0825632,10.4511978 9.99296407,10.0256021 10.0004308,9.53279967 L11.7028307,9.53279967 Z M24.5604299,9.16319969 C24.5604299,10.2458717 24.258033,11.0503969 23.65323,11.5767995 C23.048427,12.1032021 22.2121687,12.3663995 21.1444301,12.3663995 C20.0617581,12.3663995 19.2236332,12.1050688 18.6300303,11.5823995 C18.0364273,11.0597303 17.7396303,10.2533384 17.7396303,9.16319969 L17.7396303,4.19039999 L19.4980302,4.19039999 L19.4980302,9.16319969 C19.4980302,9.3797341 19.5166967,9.59253195 19.5540302,9.80159965 C19.5913637,10.0106674 19.6697629,10.1954655 19.7892302,10.3559996 C19.9086975,10.5165337 20.0748291,10.6471991 20.2876302,10.7479996 C20.5004312,10.8488001 20.7860283,10.8991996 21.1444301,10.8991996 C21.7716332,10.8991996 22.2046955,10.759201 22.44363,10.4791996 C22.6825645,10.1991982 22.80203,9.76053598 22.80203,9.16319969 L22.80203,4.19039999 L24.5604299,4.19039999 L24.5604299,9.16319969 Z M27.8308297,7.80799977 L29.7572296,7.80799977 C30.1604316,7.80799977 30.4628285,7.71840067 30.6644295,7.53919979 C30.8660305,7.3599989 30.9668295,7.06880183 30.9668295,6.66559984 C30.9668295,6.27733126 30.8660305,5.99546743 30.6644295,5.81999989 C30.4628285,5.64453236 30.1604316,5.55679991 29.7572296,5.55679991 L27.8308297,5.55679991 L27.8308297,7.80799977 Z M26.0724298,4.19039999 L30.3844296,4.19039999 C30.7428313,4.19039999 31.0657614,4.24826607 31.3532295,4.36399998 C31.6406976,4.47973388 31.8870951,4.63839895 32.0924295,4.83999995 C32.2977638,5.04160095 32.4545622,5.27493193 32.5628294,5.53999991 C32.6710966,5.80506788 32.7252294,6.09066501 32.7252294,6.39679986 C32.7252294,6.86720218 32.6262971,7.27413142 32.4284294,7.61759978 C32.2305618,7.96106815 31.9076317,8.22239885 31.4596295,8.40159974 L31.4596295,8.42399974 C31.6761639,8.48373336 31.8553621,8.57519911 31.9972295,8.69839972 C32.1390968,8.82160033 32.254829,8.96719886 32.3444294,9.13519969 C32.4340299,9.30320052 32.4993626,9.48799866 32.5404294,9.68959966 C32.5814963,9.89120066 32.609496,10.0927986 32.6244294,10.2943996 C32.6318961,10.4213336 32.6393627,10.5706654 32.6468294,10.7423996 C32.6542961,10.9141338 32.6673627,11.0895987 32.6860294,11.2687996 C32.7046962,11.4480005 32.7345626,11.6178654 32.7756294,11.7783995 C32.8166963,11.9389337 32.8782957,12.075199 32.9604294,12.1871995 L31.2020295,12.1871995 C31.1049624,11.9333316 31.0452296,11.6309346 31.0228295,11.2799996 C31.0004294,10.9290645 30.9668298,10.5930679 30.9220295,10.2719996 C30.8622959,9.85386423 30.7353638,9.54773397 30.5412296,9.35359968 C30.3470953,9.15946539 30.0297651,9.0623997 29.5892296,9.0623997 L27.8308297,9.0623997 L27.8308297,12.1871995 L26.0724298,12.1871995 L26.0724298,4.19039999 Z" fill="#FFFFFF"></path>
        </g>
    </g>
</svg>