<?xml version="1.0" encoding="UTF-8"?>
<svg width="58px" height="58px" viewBox="0 0 58 58" version="1.1" xmlns="http://www.w3.org/2000/svg" xmlns:xlink="http://www.w3.org/1999/xlink">
    <!-- Generator: Sketch 48.2 (47327) - http://www.bohemiancoding.com/sketch -->
    <title>Refresh_Icon</title>
    <desc>Created with Sketch.</desc>
    <defs></defs>
    <g id="Pulldowns/Refresh" stroke="none" stroke-width="1" fill="none" fill-rule="evenodd" transform="translate(-159.000000, -68.000000)">
        <path d="M215.493862,103.053571 C215.493862,103.1782 215.481399,103.265439 215.456473,103.31529 C213.861227,109.995383 210.521231,115.410415 205.436384,119.560547 C200.351537,123.710679 194.394379,125.785714 187.564732,125.785714 C183.925577,125.785714 180.404872,125.100267 177.002511,123.729353 C173.60015,122.358438 170.56549,120.401798 167.898438,117.859375 L163.075335,122.682478 C162.601746,123.156066 162.040926,123.392857 161.392857,123.392857 C160.744788,123.392857 160.183968,123.156066 159.710379,122.682478 C159.236791,122.208889 159,121.648069 159,121 L159,104.25 C159,103.601931 159.236791,103.041111 159.710379,102.567522 C160.183968,102.093934 160.744788,101.857143 161.392857,101.857143 L178.142857,101.857143 C178.790926,101.857143 179.351746,102.093934 179.825335,102.567522 C180.298923,103.041111 180.535714,103.601931 180.535714,104.25 C180.535714,104.898069 180.298923,105.458889 179.825335,105.932478 L174.703125,111.054688 C176.472851,112.699785 178.479341,113.970978 180.722656,114.868304 C182.965971,115.765629 185.296491,116.214286 187.714286,116.214286 C191.054332,116.214286 194.17,115.404212 197.061384,113.78404 C199.952767,112.163868 202.270825,109.93305 204.015625,107.091518 C204.289808,106.667781 204.95033,105.209648 205.99721,102.717076 C206.196616,102.143784 206.570496,101.857143 207.118862,101.857143 L214.297433,101.857143 C214.621467,101.857143 214.901878,101.975538 215.138672,102.212333 C215.375466,102.449127 215.493862,102.729537 215.493862,103.053571 Z M216.428571,73.1428571 L216.428571,89.8928571 C216.428571,90.5409259 216.191781,91.1017461 215.718192,91.5753348 C215.244603,92.0489235 214.683783,92.2857143 214.035714,92.2857143 L197.285714,92.2857143 C196.637646,92.2857143 196.076825,92.0489235 195.603237,91.5753348 C195.129648,91.1017461 194.892857,90.5409259 194.892857,89.8928571 C194.892857,89.2447884 195.129648,88.6839681 195.603237,88.2103795 L200.762835,83.0507812 C197.073828,79.6359576 192.724355,77.9285714 187.714286,77.9285714 C184.374239,77.9285714 181.258571,78.7386452 178.367188,80.358817 C175.475804,81.9789888 173.157747,84.2098072 171.412946,87.0513393 C171.138764,87.4750765 170.478242,88.9332093 169.431362,91.4257812 C169.231956,91.9990728 168.858076,92.2857143 168.30971,92.2857143 L160.86942,92.2857143 C160.545385,92.2857143 160.264975,92.1673189 160.028181,91.9305246 C159.791386,91.6937302 159.672991,91.4133201 159.672991,91.0892857 L159.672991,90.827567 C161.293163,84.147474 164.658085,78.7324426 169.767857,74.5823103 C174.87763,70.4321779 180.859713,68.3571429 187.714286,68.3571429 C191.353441,68.3571429 194.89284,69.0488212 198.332589,70.4321987 C201.772339,71.8155761 204.825694,73.7659844 207.492746,76.2834821 L212.353237,71.4603795 C212.826825,70.9867908 213.387646,70.75 214.035714,70.75 C214.683783,70.75 215.244603,70.9867908 215.718192,71.4603795 C216.191781,71.9339681 216.428571,72.4947884 216.428571,73.1428571 Z" id="Refresh_Icon" fill="#FFFFFF"></path>
    </g>
</svg>