<?xml version="1.0" encoding="utf-8"?>
<!-- Generator: Adobe Illustrator 21.1.0, SVG Export Plug-In . SVG Version: 6.00 Build 0)  -->
<svg version="1.1" id="Layer_1" xmlns="http://www.w3.org/2000/svg" xmlns:xlink="http://www.w3.org/1999/xlink" x="0px" y="0px"
	 viewBox="0 0 34.6 26.4" style="enable-background:new 0 0 34.6 26.4;" xml:space="preserve">
<style type="text/css">
	.st0{enable-background:new    ;}
	.st1{fill:#FFFFFF;}
</style>
<title>Check_Icon</title>
<desc>Created with Sketch.</desc>
<g id="Feedback-Message_x2F_Statuses_x2F_Upload-Success" transform="translate(-79.000000, -32.000000)">
	<g id="Copy" transform="translate(39.000000, 25.000000)">
		<g class="st0">
			<path class="st1" d="M74.6,12.1c0,0.6-0.2,1.1-0.6,1.5L57.8,29.8l-3,3c-0.4,0.4-0.9,0.6-1.5,0.6s-1.1-0.2-1.5-0.6l-3-3l-8.1-8.1
				c-0.5-0.4-0.7-0.9-0.7-1.5s0.2-1.1,0.6-1.5l3-3c0.4-0.4,0.9-0.6,1.5-0.6s1.1,0.2,1.5,0.6l6.6,6.6L67.9,7.6
				C68.3,7.2,68.8,7,69.4,7c0.6,0,1.1,0.2,1.5,0.6l3,3C74.4,11,74.6,11.6,74.6,12.1z"/>
		</g>
	</g>
</g>
</svg>
