<?xml version="1.0" encoding="utf-8"?>
<!-- Generator: Adobe Illustrator 21.1.0, SVG Export Plug-In . SVG Version: 6.00 Build 0)  -->
<svg version="1.1" id="Art" xmlns="http://www.w3.org/2000/svg" xmlns:xlink="http://www.w3.org/1999/xlink" x="0px" y="0px"
	 viewBox="0 0 575.8 354.1" style="enable-background:new 0 0 575.8 354.1;" xml:space="preserve">
<style type="text/css">
	.st0{fill:#FFFFFF;}
</style>
<g>
	<path class="st0" d="M140,106.1h-22.3l28-58.1H169l12.9,58.1h-22.3l-1-7.2h-15.9L140,106.1z M156.8,85.1l-1.1-10.2
		c-0.3-2.5-0.3-5-0.4-7.5h-0.8l-6.2,17.7H156.8z"/>
	<path class="st0" d="M198.1,48h21.7l3.9,30.5h0.5c0.7-2.5,1.5-5.2,2.5-7.7l9.6-22.8h21.5l1.7,58.1h-20.4l1.4-31.8h-0.4
		c-0.6,1.9-1.3,3.9-2.2,5.8l-11.9,26h-12.3l-4.2-24.6c-0.3-2.5-0.5-4.8-0.3-7.2h-0.7c-0.5,2.3-0.9,4.7-1.5,7l-5.8,24.8h-20.4
		L198.1,48z"/>
	<path class="st0" d="M272.9,48h39.1l-2.1,15.9H292l-0.7,5.5h16.3l-2,15.1h-16.3l-0.8,5.7h18.4l-2.1,15.9H265L272.9,48z"/>
	<path class="st0" d="M318.8,48h25.5c13.1,0,23.4,5.5,21.5,20.2c-1.2,8.8-5.1,12.5-13.3,15.1l-0.1,0.5c1,0.8,2.1,1.8,3.1,3.5
		l10.1,18.9h-24.3l-6.7-18.6h-0.4l-2.5,18.6h-20.6L318.8,48z M335.9,73.7h1.5c3.5,0,7-0.5,7.6-4.9c0.6-4.5-2.5-5-6.1-5h-1.6
		L335.9,73.7z"/>
	<path class="st0" d="M377.1,48h21.1l-7.8,58.1h-21.1L377.1,48z"/>
	<path class="st0" d="M445.1,71.6c-3-3.2-6.8-5.9-11.6-5.9c-6.3,0-12.2,5-13,11.3c-0.9,6.4,3.9,11.3,10.3,11.3c4.9,0,9-2.1,12.8-5.4
		l-3.5,21.7c-3.6,1.6-11.6,2.3-15.3,2.3c-16.6,0-27.8-12.9-25.5-29.4c2.3-16.9,17.4-30.5,34.5-30.5c4.8,0,9.6,0.8,13.9,2.4
		L445.1,71.6z"/>
	<path class="st0" d="M464.3,106.1H442L470,48h23.3l12.9,58.1h-22.3l-1-7.2H467L464.3,106.1z M481.1,85.1L480,74.8
		c-0.3-2.5-0.3-5-0.4-7.5h-0.8l-6.2,17.7H481.1z"/>
	<path class="st0" d="M517.6,48h20.3l14.6,32.2h0.6c-0.2-4.9-0.4-9.9,0.2-14.8l2.3-17.4h20.2l-7.8,58.1h-20.2l-14.5-30.5h-0.6
		c0.2,4,0.3,7.8-0.3,11.6l-2.5,18.9h-20.2L517.6,48z"/>
	<path class="st0" d="M118.4,118.5h39.1l-2.1,15.9h-17.8l-0.7,5.5H153l-2,15.1h-16.3l-0.8,5.7h18.4l-2.1,15.9h-39.7L118.4,118.5z"/>
	<path class="st0" d="M163.7,118.5h21.1l-5.3,39.4h17.7l-2.5,18.6h-38.8L163.7,118.5z"/>
	<path class="st0" d="M208.1,118.5h39.1l-2.1,15.9h-17.8l-0.7,5.5h16.3l-2,15.1h-16.3l-0.8,5.7h18.4l-2.1,15.9h-39.7L208.1,118.5z"
		/>
	<path class="st0" d="M292.5,142.1c-3-3.2-6.8-5.9-11.6-5.9c-6.3,0-12.2,5-13,11.3c-0.9,6.4,3.9,11.3,10.3,11.3
		c4.9,0,9-2.1,12.8-5.4l-3.5,21.7c-3.6,1.6-11.6,2.3-15.3,2.3c-16.6,0-27.8-12.9-25.5-29.4c2.3-16.9,17.4-30.5,34.5-30.5
		c4.8,0,9.6,0.8,13.9,2.4L292.5,142.1z"/>
	<path class="st0" d="M299.9,118.5h44.4l-2.5,18.9l-11.6-0.5l-5.3,39.7h-21.1l5.3-39.7l-11.7,0.5L299.9,118.5z"/>
	<path class="st0" d="M349,118.5h25.5c13.1,0,23.4,5.5,21.5,20.2c-1.2,8.8-5.1,12.5-13.3,15.1l-0.1,0.5c1,0.8,2.1,1.8,3.1,3.5
		l10.1,18.9h-24.3l-6.7-18.6h-0.4l-2.5,18.6h-20.6L349,118.5z M366.1,144.2h1.5c3.5,0,7-0.5,7.6-4.9c0.6-4.5-2.5-5-6.1-5h-1.6
		L366.1,144.2z"/>
	<path class="st0" d="M407.3,118.5h21.1l-7.8,58.1h-21.1L407.3,118.5z"/>
	<path class="st0" d="M475.3,142.1c-3-3.2-6.8-5.9-11.6-5.9c-6.3,0-12.2,5-13,11.3c-0.9,6.4,3.9,11.3,10.3,11.3
		c4.9,0,9-2.1,12.8-5.4l-3.5,21.7c-3.6,1.6-11.6,2.3-15.3,2.3c-16.6,0-27.8-12.9-25.5-29.4c2.3-16.9,17.4-30.5,34.5-30.5
		c4.8,0,9.6,0.8,13.9,2.4L475.3,142.1z"/>
	<path class="st0" d="M108.9,189h26.7c13.6,0,22.6,6.9,20.7,21.3c-1.6,11.9-10,19.3-21.8,19.3h-10.8l-2.4,17.5H101L108.9,189z
		 M125.7,215h2.1c3.7,0,7.8-0.6,8.4-5.3c0.6-4.5-3.7-4.8-7.1-4.8h-2L125.7,215z"/>
	<path class="st0" d="M221.6,218.2c-2.5,18.6-18.4,29.8-36.1,29.8c-17.7,0-30.6-11.2-28.1-29.8c2.5-18.2,18.5-30.1,36.2-30.1
		S224.1,200,221.6,218.2z M178.6,218.5c-0.9,6.6,3,11.2,9.4,11.2s11.5-4.5,12.4-11.2c0.8-6.2-2.6-11.3-9.3-11.3
		S179.4,212.4,178.6,218.5z"/>
	<path class="st0" d="M243.2,189l2.7,34.7h0.5c0.9-3.5,1.8-7.2,3.2-10.7l9.4-23.9h16.2l3.3,34.7h0.5c0.8-3.4,1.6-6.9,2.8-10.2
		l9.1-24.4h22l-28.3,58.1H266l-2.4-31.6H263c-0.6,3-1.2,5.9-2.3,8.8l-8.9,22.8h-17.9L221.3,189H243.2z"/>
	<path class="st0" d="M316.2,189h39.1l-2.1,15.9h-17.8l-0.7,5.5h16.3l-2,15.1h-16.3l-0.8,5.7h18.4l-2.1,15.9h-39.7L316.2,189z"/>
	<path class="st0" d="M362.1,189h25.5c13.1,0,23.4,5.5,21.5,20.2c-1.2,8.8-5.1,12.5-13.3,15.1l-0.1,0.5c1,0.8,2.1,1.8,3.1,3.5
		l10.1,18.9h-24.3l-6.7-18.6h-0.4l-2.5,18.6h-20.6L362.1,189z M379.3,214.8h1.5c3.5,0,7-0.5,7.6-4.9c0.6-4.5-2.5-5-6.1-5h-1.6
		L379.3,214.8z"/>
	<g>
		<path class="st0" d="M89.8,329.9h5.9c2.5,0,4.4,0.1,5.7,1.2c1.3,1,1.9,2.8,1.6,4.9c-0.3,2.5-1.7,4.2-4,4.9
			c2.7,0.4,4.1,2.6,3.6,5.7c-0.3,1.9-1.2,3.7-2.6,4.9c-1.9,1.7-4.1,1.8-7.4,1.8h-6L89.8,329.9z M92.2,350c2.1,0,3.7-0.1,4.7-0.7
			c1-0.6,1.7-1.7,1.9-3c0.2-1.5-0.3-2.6-1.4-3.2c-0.8-0.5-1.9-0.5-3-0.5c-0.4,0-0.8,0-1.2,0h-1.3l-1,7.4H92.2z M93.7,339.7
			c3.5,0,5.1-0.8,5.4-3.2c0.4-2.9-1.1-3.5-4.5-3.5h-1.4l-0.9,6.7H93.7z"/>
		<path class="st0" d="M131.1,350.2c-2.7,2.3-6,3.6-9.4,3.6c-3.4,0-6.4-1.3-8.4-3.6c-2.1-2.3-2.9-5.3-2.5-8.6
			c0.4-3.3,2.1-6.3,4.8-8.7c2.7-2.3,6-3.6,9.4-3.6s6.3,1.2,8.4,3.6c2.1,2.3,3,5.4,2.5,8.7C135.5,344.9,133.8,347.9,131.1,350.2z
			 M130.2,335.4c-1.4-1.7-3.4-2.5-5.7-2.5s-4.6,0.9-6.4,2.5c-1.9,1.7-3,3.8-3.3,6.2c-0.3,2.3,0.3,4.5,1.7,6.2
			c1.4,1.7,3.4,2.5,5.7,2.5s4.5-0.9,6.4-2.5c1.9-1.7,3-3.8,3.4-6.2C132.3,339.2,131.7,337.1,130.2,335.4z"/>
		<path class="st0" d="M151.4,329.9l-1.9,14.1c-0.6,4.2,1.1,6.3,5,6.3s6.1-2.1,6.7-6.3l1.9-14.1h3.8l-1.9,14.5
			c-0.8,6.3-4.5,9.4-10.9,9.4s-9.2-3.1-8.4-9.4l1.9-14.5H151.4z"/>
		<path class="st0" d="M179.7,329l13,14.2c0.8,0.9,1.5,1.9,2.2,2.8l2.2-16.2h3.5l-3.2,24.2L184,339.6c-0.7-0.8-1.4-1.7-1.9-2.6
			l-2.2,16.2h-3.5L179.7,329z"/>
		<path class="st0" d="M214,329.9h5.2c4.4,0,7.8,0,10.4,2.2c2.4,2.1,3.4,5.3,2.9,9.5c-0.6,4.2-2.4,7.4-5.4,9.5
			c-3,2.1-6.1,2.2-9.9,2.2c-0.3,0-0.7,0-1,0h-5.2L214,329.9z M216.5,349.8c0.7,0,1.2,0,1.8,0c2.6,0,4.6-0.1,6.5-1.5
			c2-1.5,3.2-3.7,3.6-6.7s-0.2-5.2-1.8-6.7c-1.5-1.4-3.7-1.5-6.5-1.5c-0.4,0-0.9,0-1.4,0h-1.4l-2.2,16.5H216.5z"/>
		<path class="st0" d="M245.6,329.9h3.8l-2.7,19.9h8.5l-0.5,3.4h-12.4L245.6,329.9z"/>
		<path class="st0" d="M268.1,329.9h13.1l-0.4,3.2h-9.3l-0.8,5.8h9.3l-0.4,3.3h-9.3l-1,7.5h9.3l-0.5,3.4H265L268.1,329.9z"/>
		<path class="st0" d="M292.8,347.1c0.3,2.1,1.7,3.2,4.1,3.2c2.3,0,3.9-1.4,4.2-3.5c0.3-2.3-1.4-2.8-3.6-4c-3.9-2-6-3.6-5.5-7.1
			c0.5-3.7,3.7-6.4,7.9-6.4c3.5,0,5.7,1.4,6.3,3.8l-3.2,1.5c-0.7-1.4-1.7-2.1-3.2-2.1c-2.1,0-3.5,1.2-3.7,2.9
			c-0.3,2.2,1.4,2.9,3.9,4.1c3.9,1.9,5.6,3.6,5.2,6.9c-0.6,4.3-3.9,7.2-8.8,7.2c-4,0-6.4-1.9-6.7-5.3L292.8,347.1z"/>
		<path class="st0" d="M318.7,347.1c0.3,2.1,1.7,3.2,4.1,3.2c2.3,0,3.9-1.4,4.2-3.5c0.3-2.3-1.4-2.8-3.6-4c-3.9-2-6-3.6-5.5-7.1
			c0.5-3.7,3.7-6.4,7.9-6.4c3.5,0,5.7,1.4,6.3,3.8l-3.2,1.5c-0.7-1.4-1.7-2.1-3.2-2.1c-2.1,0-3.5,1.2-3.7,2.9
			c-0.3,2.2,1.4,2.9,3.9,4.1c3.9,1.9,5.6,3.6,5.2,6.9c-0.6,4.3-3.9,7.2-8.8,7.2c-4,0-6.4-1.9-6.7-5.3L318.7,347.1z"/>
		<path class="st0" d="M361.8,329.9h13.1l-0.4,3.2h-9.3l-0.8,5.8h9.3l-0.4,3.3h-9.3l-1,7.5h9.3l-0.5,3.4h-13.1L361.8,329.9z"/>
		<path class="st0" d="M387.6,329l13,14.2c0.8,0.9,1.5,1.9,2.2,2.8l2.2-16.2h3.5l-3.2,24.2L392,339.6c-0.7-0.8-1.4-1.7-1.9-2.6
			l-2.2,16.2h-3.5L387.6,329z"/>
		<path class="st0" d="M421.3,329.9h13.1l-0.4,3.2h-9.3l-0.8,5.8h9.3l-0.4,3.3h-9.3l-1,7.5h9.3l-0.5,3.4h-13.1L421.3,329.9z"/>
		<path class="st0" d="M447.4,353.2h-3.6l3.1-23.3h5.3c2.5,0,4.4,0.2,5.7,1.3c1.3,1.1,1.9,2.9,1.6,5.1c-0.5,3.7-2.6,5.9-6.2,6.3
			l6.7,10.6h-4.3l-6.4-10.4h-0.4L447.4,353.2z M450.2,339.8c3.4,0,5.1-0.4,5.5-3.2c0.4-2.9-1.1-3.5-4.6-3.5h-0.7l-0.9,6.7H450.2z"/>
		<path class="st0" d="M493,341.3c-0.1,0.9-0.2,1.7-0.2,2.2c-0.9,6.6-5.4,10.4-12.2,10.4c-3.8,0-6.7-1.1-8.7-3.4
			c-1.9-2.2-2.7-5.4-2.3-8.8c0.5-3.5,2.1-6.5,4.8-8.8c2.6-2.2,5.9-3.4,9.4-3.4c3.7,0,6.4,1.3,8.3,4.1l-3.1,2.1
			c-1.3-1.8-3.2-2.7-5.7-2.7c-5,0-9.1,3.5-9.8,8.7c-0.7,5.3,2.4,8.9,7.5,8.9c4.4,0,7.3-2.2,7.8-5.6c0-0.1,0-0.2,0-0.3h-5.7l0.4-3.2
			H493z"/>
		<path class="st0" d="M507.5,342.5l-6.2-12.6h4l3.9,7.9c0.1,0.2,0.4,0.8,0.7,1.9c0.4-0.7,0.8-1.4,1.2-2l6.1-7.8h3.8l-9.8,12.6
			l-1.4,10.7h-3.8L507.5,342.5z"/>
	</g>
	<path class="st0" d="M528.9,331.5c-0.3-0.5-0.7-0.7-1.3-0.7c-0.6,0-1.3,0.4-1.3,1.1c0,0.6,0.6,0.9,1.1,1.1l0.6,0.2
		c1.1,0.4,2,1,2,2.4c0,1.4-1,2.4-2.4,2.4c-1.3,0-2.3-0.9-2.5-2.2l1-0.2c0,0.9,0.7,1.5,1.6,1.5c0.8,0,1.4-0.7,1.4-1.5
		c0-0.8-0.7-1.2-1.4-1.5l-0.5-0.2c-0.9-0.4-1.7-0.9-1.7-2c0-1.3,1.1-2,2.3-2c0.9,0,1.6,0.4,2,1.2L528.9,331.5z"/>
	<path class="st0" d="M532.9,332.7L532.9,332.7l-0.8,5.2h-1l1.4-8.2l2.8,6.2l2.5-6.2l1.8,8.2h-1l-1-5.2h0l-2.2,5.3L532.9,332.7z"/>
	<polygon class="st0" points="292.9,262.3 290.5,280.1 17.2,280.1 52.9,15 326.2,15 323.8,32.8 338.9,32.8 343.4,0 39.7,0 0,295.1 
		303.7,295.1 308.1,262.3 	"/>
	<g>
		<path class="st0" d="M419.1,188.1c4,0,7.2,3.2,7.2,7.2s-3.2,7.2-7.2,7.2c-4,0-7.2-3.2-7.2-7.2S415.1,188.1,419.1,188.1z
			 M419.1,200.9c3.1,0,5.6-2.5,5.6-5.6s-2.5-5.6-5.6-5.6c-3.1,0-5.6,2.5-5.6,5.6S416,200.9,419.1,200.9z M416.2,198.9v-7.4h3
			c2,0,2.8,1.2,2.8,2.2c0,1.2-0.6,1.9-1.6,2.2l2,3h-1.7l-1.8-2.8h-1.2v2.8H416.2z M418.9,194.9c1.1,0,1.6-0.3,1.6-1.1
			c0-0.7-0.5-1-1.5-1h-1.4v2.1H418.9z"/>
	</g>
</g>
</svg>
