<?xml version="1.0" encoding="UTF-8"?>
<svg width="14px" height="23px" viewBox="0 0 14 23" version="1.1" xmlns="http://www.w3.org/2000/svg" xmlns:xlink="http://www.w3.org/1999/xlink">
    <!-- Generator: Sketch 48.2 (47327) - http://www.bohemiancoding.com/sketch -->
    <title>Back_Arrow_Icon</title>
    <desc>Created with Sketch.</desc>
    <defs></defs>
    <g id="Navigation/Back-Arrow-and-Menu" stroke="none" stroke-width="1" fill="none" fill-rule="evenodd" transform="translate(-19.000000, -31.000000)">
        <g id="Nav" fill="#FFFFFF">
            <path d="M32.0580357,41.6294643 C32.206846,41.7782746 32.28125,41.9494038 32.28125,42.1428571 C32.28125,42.3363105 32.206846,42.5074397 32.0580357,42.65625 L21.65625,53.0580357 C21.5074397,53.206846 21.3363105,53.28125 21.1428571,53.28125 C20.9494038,53.28125 20.7782746,53.206846 20.6294643,53.0580357 L19.5133929,51.9419643 C19.3645826,51.793154 19.2901786,51.6220248 19.2901786,51.4285714 C19.2901786,51.2351181 19.3645826,51.0639888 19.5133929,50.9151786 L28.2857143,42.1428571 L19.5133929,33.3705357 C19.3645826,33.2217254 19.2901786,33.0505962 19.2901786,32.8571429 C19.2901786,32.6636895 19.3645826,32.4925603 19.5133929,32.34375 L20.6294643,31.2276786 C20.7782746,31.0788683 20.9494038,31.0044643 21.1428571,31.0044643 C21.3363105,31.0044643 21.5074397,31.0788683 21.65625,31.2276786 L32.0580357,41.6294643 Z" id="Back_Arrow_Icon" transform="translate(25.785714, 42.142857) rotate(-180.000000) translate(-25.785714, -42.142857) "></path>
        </g>
    </g>
</svg>