<?xml version="1.0" encoding="UTF-8"?>
<svg width="22px" height="18px" viewBox="0 0 22 18" version="1.1" xmlns="http://www.w3.org/2000/svg" xmlns:xlink="http://www.w3.org/1999/xlink">
    <!-- Generator: Sketch 48.2 (47327) - http://www.bohemiancoding.com/sketch -->
    <title>Menu</title>
    <desc>Created with Sketch.</desc>
    <defs></defs>
    <g id="Navigation/Back-Arrow-and-Menu" stroke="none" stroke-width="1" fill="none" fill-rule="evenodd" transform="translate(-336.000000, -32.000000)">
        <g id="Nav" fill="#FFFFFF">
            <path d="M357.428571,47.3214286 L357.428571,49.1071429 C357.428571,49.3489595 357.340217,49.5582208 357.163504,49.734933 C356.986792,49.9116452 356.777531,50 356.535714,50 L336.892857,50 C336.65104,50 336.441779,49.9116452 336.265067,49.734933 C336.088355,49.5582208 336,49.3489595 336,49.1071429 L336,47.3214286 C336,47.0796119 336.088355,46.8703506 336.265067,46.6936384 C336.441779,46.5169262 336.65104,46.4285714 336.892857,46.4285714 L356.535714,46.4285714 C356.777531,46.4285714 356.986792,46.5169262 357.163504,46.6936384 C357.340217,46.8703506 357.428571,47.0796119 357.428571,47.3214286 Z M357.428571,40.1785714 L357.428571,41.9642857 C357.428571,42.2061024 357.340217,42.4153637 357.163504,42.5920759 C356.986792,42.7687881 356.777531,42.8571429 356.535714,42.8571429 L336.892857,42.8571429 C336.65104,42.8571429 336.441779,42.7687881 336.265067,42.5920759 C336.088355,42.4153637 336,42.2061024 336,41.9642857 L336,40.1785714 C336,39.9367547 336.088355,39.7274934 336.265067,39.5507812 C336.441779,39.3740691 336.65104,39.2857143 336.892857,39.2857143 L356.535714,39.2857143 C356.777531,39.2857143 356.986792,39.3740691 357.163504,39.5507812 C357.340217,39.7274934 357.428571,39.9367547 357.428571,40.1785714 Z M357.428571,33.0357143 L357.428571,34.8214286 C357.428571,35.0632453 357.340217,35.2725066 357.163504,35.4492188 C356.986792,35.6259309 356.777531,35.7142857 356.535714,35.7142857 L336.892857,35.7142857 C336.65104,35.7142857 336.441779,35.6259309 336.265067,35.4492188 C336.088355,35.2725066 336,35.0632453 336,34.8214286 L336,33.0357143 C336,32.7938976 336.088355,32.5846363 336.265067,32.4079241 C336.441779,32.2312119 336.65104,32.1428571 336.892857,32.1428571 L356.535714,32.1428571 C356.777531,32.1428571 356.986792,32.2312119 357.163504,32.4079241 C357.340217,32.5846363 357.428571,32.7938976 357.428571,33.0357143 Z" id="Menu"></path>
        </g>
    </g>
</svg>