<?xml version="1.0" encoding="utf-8"?>
<!-- Generator: Adobe Illustrator 21.1.0, SVG Export Plug-In . SVG Version: 6.00 Build 0)  -->
<svg version="1.1" id="Layer_1" xmlns="http://www.w3.org/2000/svg" xmlns:xlink="http://www.w3.org/1999/xlink" x="0px" y="0px"
	 viewBox="0 0 21.4 21.4" style="enable-background:new 0 0 21.4 21.4;" xml:space="preserve">
<style type="text/css">
	.st0{enable-background:new    ;}
	.st1{fill:#037AFF;}
</style>
<title>Download Arrow</title>
<desc>Created with Sketch.</desc>
<g id="Tours_x2F_Standard-Tour_x2F_Upload--Download-All" transform="translate(0.000000, -8.000000)">
	<g id="Download-All" transform="translate(0.000000, 7.000000)">
		<g class="st0">
			<path class="st1" d="M20,6.3c1,1.6,1.4,3.4,1.4,5.4c0,1.9-0.5,3.7-1.4,5.4c-1,1.6-2.3,2.9-3.9,3.9c-1.6,1-3.4,1.4-5.4,1.4
				S7,21.9,5.3,21c-1.6-1-2.9-2.3-3.9-3.9c-1-1.6-1.4-3.4-1.4-5.4C0,9.8,0.5,8,1.4,6.3c1-1.6,2.3-2.9,3.9-3.9C7,1.5,8.8,1,10.7,1
				s3.7,0.5,5.4,1.4C17.7,3.4,19,4.7,20,6.3z M14.5,5.1c-1.2-0.7-2.4-1-3.8-1s-2.6,0.3-3.8,1C5.7,5.8,4.8,6.7,4.1,7.9
				c-0.7,1.2-1,2.4-1,3.8c0,1.4,0.3,2.6,1,3.8c0.7,1.2,1.6,2.1,2.8,2.8s2.4,1,3.8,1s2.6-0.3,3.8-1c1.2-0.7,2.1-1.6,2.8-2.8
				c0.7-1.2,1-2.4,1-3.8c0-1.4-0.3-2.6-1-3.8C16.6,6.7,15.7,5.8,14.5,5.1z M15.6,12.2c0,0.1,0,0.2-0.1,0.3L11,16.9
				c-0.1,0.1-0.2,0.1-0.3,0.1c-0.1,0-0.2,0-0.3-0.1l-4.5-4.5c-0.1-0.1-0.2-0.3-0.1-0.5c0.1-0.2,0.2-0.3,0.4-0.3h2.7V6.8
				c0-0.1,0-0.2,0.1-0.3c0.1-0.1,0.2-0.1,0.3-0.1h2.7c0.1,0,0.2,0,0.3,0.1c0.1,0.1,0.1,0.2,0.1,0.3v4.9h2.7c0.1,0,0.2,0,0.3,0.1
				C15.6,11.9,15.6,12,15.6,12.2z"/>
		</g>
	</g>
</g>
</svg>
