<?xml version="1.0" encoding="utf-8"?>
<!-- Generator: Adobe Illustrator 21.1.0, SVG Export Plug-In . SVG Version: 6.00 Build 0)  -->
<svg version="1.1" id="Layer_1" xmlns="http://www.w3.org/2000/svg" xmlns:xlink="http://www.w3.org/1999/xlink" x="0px" y="0px"
	 viewBox="0 0 21.4 21.4" style="enable-background:new 0 0 21.4 21.4;" xml:space="preserve">
<style type="text/css">
	.st0{opacity:0.5;}
	.st1{enable-background:new    ;}
	.st2{fill:#555555;}
</style>
<title>Upload_Disabled_Icon</title>
<desc>Created with Sketch.</desc>
<g id="Tours_x2F_Standard-Tour_x2F_Download-Status_x2F_Upload-Disabled" transform="translate(-23.000000, -1.000000)" class="st0">
	<g class="st1">
		<path class="st2" d="M43,6.3c1,1.6,1.4,3.4,1.4,5.4c0,1.9-0.5,3.7-1.4,5.4c-1,1.6-2.3,2.9-3.9,3.9c-1.6,1-3.4,1.4-5.4,1.4
			S30,21.9,28.3,21c-1.6-1-2.9-2.3-3.9-3.9c-1-1.6-1.4-3.4-1.4-5.4c0-1.9,0.5-3.7,1.4-5.4c1-1.6,2.3-2.9,3.9-3.9
			C30,1.5,31.8,1,33.7,1s3.7,0.5,5.4,1.4C40.7,3.4,42,4.7,43,6.3z M37.5,5.1c-1.2-0.7-2.4-1-3.8-1s-2.6,0.3-3.8,1
			c-1.2,0.7-2.1,1.6-2.8,2.8c-0.7,1.2-1,2.4-1,3.8c0,1.4,0.3,2.6,1,3.8c0.7,1.2,1.6,2.1,2.8,2.8s2.4,1,3.8,1s2.6-0.3,3.8-1
			c1.2-0.7,2.1-1.6,2.8-2.8c0.7-1.2,1-2.4,1-3.8c0-1.4-0.3-2.6-1-3.8C39.6,6.7,38.7,5.8,37.5,5.1z M38.6,11.4
			c-0.1,0.2-0.2,0.3-0.4,0.3h-2.7v4.9c0,0.1,0,0.2-0.1,0.3c-0.1,0.1-0.2,0.1-0.3,0.1h-2.7c-0.1,0-0.2,0-0.3-0.1
			c-0.1-0.1-0.1-0.2-0.1-0.3v-4.9h-2.7c-0.1,0-0.2,0-0.3-0.1c-0.1-0.1-0.1-0.2-0.1-0.3c0-0.1,0-0.2,0.1-0.3l4.5-4.5
			c0.1-0.1,0.2-0.1,0.3-0.1c0.1,0,0.2,0,0.3,0.1l4.5,4.5C38.6,11.1,38.7,11.3,38.6,11.4z"/>
	</g>
</g>
</svg>
